<svg xmlns="http://www.w3.org/2000/svg" xmlns:xlink="http://www.w3.org/1999/xlink" width="200" zoomAndPan="magnify" viewBox="0 0 150 74.999997" height="100" preserveAspectRatio="xMidYMid meet" version="1.0"><defs><g/></defs><rect x="-15" width="180" fill="#ffffff" y="-7.5" height="89.999996" fill-opacity="1"/><rect x="-15" width="180" fill="#ffffff" y="-7.5" height="89.999996" fill-opacity="1"/><g fill="#000000" fill-opacity="1"><g transform="translate(3.386721, 37.350747)"><g><path d="M 24.421875 -5.484375 C 24.492188 -5.453125 24.53125 -5.390625 24.53125 -5.296875 C 24.53125 -5.203125 24.503906 -5.097656 24.453125 -4.984375 C 24.410156 -4.867188 24.378906 -4.769531 24.359375 -4.6875 C 23.554688 -2.8125 22.601562 -1.007812 21.5 0.71875 C 20.394531 2.445312 19.070312 3.96875 17.53125 5.28125 C 16.71875 5.957031 15.859375 6.566406 14.953125 7.109375 C 14.046875 7.660156 13.070312 8.125 12.03125 8.5 C 11.363281 8.738281 10.757812 8.90625 10.21875 9 C 9.675781 9.09375 9.046875 9.132812 8.328125 9.125 C 7.921875 9.132812 7.515625 9.125 7.109375 9.09375 C 6.703125 9.0625 6.289062 8.988281 5.875 8.875 C 3.945312 8.332031 2.515625 7.160156 1.578125 5.359375 C 1.253906 4.734375 1.003906 4.097656 0.828125 3.453125 C 0.648438 2.816406 0.515625 2.171875 0.421875 1.515625 C 0.203125 -0.222656 0.195312 -1.929688 0.40625 -3.609375 C 0.675781 -5.941406 1.144531 -8.179688 1.8125 -10.328125 C 2.488281 -12.484375 3.34375 -14.554688 4.375 -16.546875 C 5.5 -18.753906 6.882812 -20.773438 8.53125 -22.609375 C 9.664062 -23.878906 10.957031 -24.96875 12.40625 -25.875 C 13.488281 -26.5625 14.695312 -27.015625 16.03125 -27.234375 C 16.613281 -27.335938 17.203125 -27.3125 17.796875 -27.15625 C 18.734375 -26.925781 19.328125 -26.351562 19.578125 -25.4375 C 19.753906 -24.6875 19.753906 -23.757812 19.578125 -22.65625 C 19.398438 -21.550781 19.113281 -20.398438 18.71875 -19.203125 C 18.332031 -18.003906 17.90625 -16.890625 17.4375 -15.859375 C 16.96875 -14.835938 16.535156 -14.023438 16.140625 -13.421875 C 16.023438 -13.265625 15.882812 -13.171875 15.71875 -13.140625 C 15.550781 -13.109375 15.363281 -13.117188 15.15625 -13.171875 C 15.050781 -13.191406 14.96875 -13.242188 14.90625 -13.328125 C 14.84375 -13.421875 14.832031 -13.503906 14.875 -13.578125 C 14.90625 -13.710938 14.957031 -13.835938 15.03125 -13.953125 C 15.050781 -14.015625 15.082031 -14.082031 15.125 -14.15625 C 15.269531 -14.5 15.4375 -14.878906 15.625 -15.296875 C 16.039062 -16.234375 16.472656 -17.253906 16.921875 -18.359375 C 17.378906 -19.472656 17.75 -20.578125 18.03125 -21.671875 C 18.3125 -22.773438 18.410156 -23.773438 18.328125 -24.671875 C 18.191406 -26.179688 17.429688 -26.742188 16.046875 -26.359375 C 15.429688 -26.191406 14.859375 -25.96875 14.328125 -25.6875 C 13.796875 -25.40625 13.289062 -25.09375 12.8125 -24.75 C 11.84375 -24.050781 10.957031 -23.273438 10.15625 -22.421875 C 9.363281 -21.566406 8.640625 -20.65625 7.984375 -19.6875 C 4.710938 -14.9375 2.703125 -9.550781 1.953125 -3.53125 C 1.734375 -1.78125 1.738281 0 1.96875 1.8125 C 2.09375 2.851562 2.398438 3.878906 2.890625 4.890625 C 3.367188 5.878906 3.941406 6.632812 4.609375 7.15625 C 5.285156 7.675781 5.984375 8.019531 6.703125 8.1875 C 7.421875 8.351562 8.097656 8.398438 8.734375 8.328125 C 9.859375 8.203125 10.910156 7.910156 11.890625 7.453125 C 13.847656 6.554688 15.445312 5.601562 16.6875 4.59375 C 17.9375 3.582031 18.984375 2.519531 19.828125 1.40625 C 20.671875 0.300781 21.457031 -0.851562 22.1875 -2.0625 C 22.488281 -2.539062 22.742188 -3.003906 22.953125 -3.453125 C 23.210938 -3.972656 23.546875 -4.5625 23.953125 -5.21875 C 24.097656 -5.414062 24.253906 -5.503906 24.421875 -5.484375 Z M 24.421875 -5.484375 "/></g></g></g><g fill="#000000" fill-opacity="1"><g transform="translate(26.760923, 37.350747)"><g><path d="M 8.375 -4.203125 C 8.5 -4.273438 8.625 -4.332031 8.75 -4.375 C 8.875 -4.414062 8.953125 -4.410156 8.984375 -4.359375 C 9.023438 -4.316406 8.976562 -4.210938 8.84375 -4.046875 C 8.40625 -3.546875 7.882812 -3.085938 7.28125 -2.671875 C 6.675781 -2.265625 6.050781 -1.921875 5.40625 -1.640625 C 4.914062 -1.410156 4.390625 -1.226562 3.828125 -1.09375 C 3.273438 -0.957031 2.726562 -0.925781 2.1875 -1 C 1.644531 -1.082031 1.15625 -1.328125 0.71875 -1.734375 C 0.0390625 -2.359375 -0.238281 -3.117188 -0.125 -4.015625 C -0.03125 -4.734375 0.242188 -5.34375 0.703125 -5.84375 C 1.171875 -6.351562 1.753906 -6.695312 2.453125 -6.875 C 3.035156 -7 3.617188 -7.015625 4.203125 -6.921875 C 4.472656 -6.878906 4.71875 -6.785156 4.9375 -6.640625 C 5.132812 -6.484375 5.242188 -6.300781 5.265625 -6.09375 C 5.285156 -5.882812 5.207031 -5.6875 5.03125 -5.5 C 4.65625 -5.164062 4.226562 -4.96875 3.75 -4.90625 C 3.195312 -4.8125 2.648438 -4.753906 2.109375 -4.734375 C 1.835938 -4.734375 1.644531 -4.675781 1.53125 -4.5625 C 1.425781 -4.457031 1.367188 -4.269531 1.359375 -4 C 1.265625 -3.28125 1.492188 -2.691406 2.046875 -2.234375 C 2.390625 -1.960938 2.804688 -1.847656 3.296875 -1.890625 C 3.785156 -1.929688 4.304688 -2.0625 4.859375 -2.28125 C 5.410156 -2.5 5.945312 -2.757812 6.46875 -3.0625 C 7 -3.363281 7.476562 -3.644531 7.90625 -3.90625 C 8.082031 -4.019531 8.238281 -4.117188 8.375 -4.203125 Z M 2.34375 -5.75 C 2.34375 -5.738281 2.332031 -5.734375 2.3125 -5.734375 C 2.289062 -5.703125 2.257812 -5.671875 2.21875 -5.640625 C 2.175781 -5.609375 2.140625 -5.578125 2.109375 -5.546875 C 2.078125 -5.515625 2.0625 -5.492188 2.0625 -5.484375 C 2.070312 -5.441406 2.175781 -5.429688 2.375 -5.453125 C 2.570312 -5.472656 2.789062 -5.503906 3.03125 -5.546875 C 3.269531 -5.597656 3.46875 -5.664062 3.625 -5.75 C 3.78125 -5.84375 3.828125 -5.945312 3.765625 -6.0625 C 3.742188 -6.09375 3.707031 -6.117188 3.65625 -6.140625 C 3.613281 -6.171875 3.566406 -6.191406 3.515625 -6.203125 C 3.285156 -6.203125 3.070312 -6.15625 2.875 -6.0625 C 2.6875 -5.976562 2.507812 -5.875 2.34375 -5.75 Z M 4.65625 -10.28125 C 4.71875 -10.375 4.800781 -10.429688 4.90625 -10.453125 C 5.007812 -10.484375 5.117188 -10.492188 5.234375 -10.484375 C 5.265625 -10.484375 5.285156 -10.484375 5.296875 -10.484375 C 5.347656 -10.472656 5.398438 -10.46875 5.453125 -10.46875 C 5.710938 -10.40625 5.859375 -10.316406 5.890625 -10.203125 C 5.921875 -10.085938 5.890625 -9.960938 5.796875 -9.828125 C 5.703125 -9.703125 5.597656 -9.59375 5.484375 -9.5 C 5.210938 -9.207031 4.953125 -8.867188 4.703125 -8.484375 C 4.472656 -8.160156 4.269531 -7.90625 4.09375 -7.71875 C 3.925781 -7.539062 3.796875 -7.519531 3.703125 -7.65625 C 3.597656 -7.738281 3.539062 -7.828125 3.53125 -7.921875 C 3.53125 -8.023438 3.550781 -8.132812 3.59375 -8.25 C 3.664062 -8.582031 3.78125 -8.890625 3.9375 -9.171875 C 4.101562 -9.460938 4.28125 -9.75 4.46875 -10.03125 C 4.519531 -10.125 4.582031 -10.207031 4.65625 -10.28125 Z M 4.65625 -10.28125 "/></g></g></g><g fill="#000000" fill-opacity="1"><g transform="translate(35.169033, 37.350747)"><g><path d="M 6.28125 -4.046875 C 6.375 -4.285156 6.476562 -4.40625 6.59375 -4.40625 C 6.707031 -4.40625 6.742188 -4.285156 6.703125 -4.046875 C 6.515625 -3.453125 6.285156 -2.882812 6.015625 -2.34375 C 5.753906 -1.800781 5.394531 -1.316406 4.9375 -0.890625 C 4.59375 -0.546875 4.175781 -0.320312 3.6875 -0.21875 C 3.039062 -0.132812 2.503906 -0.210938 2.078125 -0.453125 C 1.648438 -0.703125 1.3125 -1.0625 1.0625 -1.53125 C 0.8125 -2 0.625 -2.507812 0.5 -3.0625 C 0.382812 -3.613281 0.304688 -4.148438 0.265625 -4.671875 C 0.171875 -5.660156 0.101562 -6.957031 0.0625 -8.5625 C 0.0195312 -10.164062 0.0351562 -11.863281 0.109375 -13.65625 C 0.179688 -15.445312 0.351562 -17.101562 0.625 -18.625 C 0.90625 -20.15625 1.3125 -21.34375 1.84375 -22.1875 C 2.15625 -22.59375 2.515625 -22.796875 2.921875 -22.796875 C 3.328125 -22.804688 3.691406 -22.625 4.015625 -22.25 C 4.234375 -21.945312 4.394531 -21.628906 4.5 -21.296875 C 4.613281 -20.972656 4.6875 -20.640625 4.71875 -20.296875 C 4.832031 -19.117188 4.816406 -17.875 4.671875 -16.5625 C 4.523438 -15.257812 4.296875 -13.867188 3.984375 -12.390625 C 3.671875 -10.910156 3.296875 -9.601562 2.859375 -8.46875 C 2.429688 -7.34375 2.070312 -6.445312 1.78125 -5.78125 C 1.625 -5.519531 1.566406 -5.117188 1.609375 -4.578125 C 1.660156 -3.992188 1.769531 -3.382812 1.9375 -2.75 C 2.113281 -2.113281 2.351562 -1.609375 2.65625 -1.234375 C 2.945312 -0.921875 3.269531 -0.820312 3.625 -0.9375 C 3.988281 -1.0625 4.347656 -1.304688 4.703125 -1.671875 C 5.054688 -2.046875 5.367188 -2.453125 5.640625 -2.890625 C 5.921875 -3.328125 6.132812 -3.710938 6.28125 -4.046875 Z M 1.640625 -12.9375 C 1.609375 -12.550781 1.578125 -11.972656 1.546875 -11.203125 C 1.515625 -10.429688 1.484375 -9.644531 1.453125 -8.84375 C 1.429688 -7.957031 1.40625 -7.265625 1.375 -6.765625 C 1.65625 -7.398438 1.984375 -8.320312 2.359375 -9.53125 C 2.734375 -10.75 3.078125 -12.179688 3.390625 -13.828125 C 3.703125 -15.484375 3.90625 -17.273438 4 -19.203125 C 3.945312 -20.328125 3.8125 -21.085938 3.59375 -21.484375 C 3.375 -21.890625 3.132812 -21.925781 2.875 -21.59375 C 2.625 -21.257812 2.425781 -20.566406 2.28125 -19.515625 C 2.039062 -17.753906 1.859375 -15.992188 1.734375 -14.234375 C 1.703125 -13.796875 1.671875 -13.363281 1.640625 -12.9375 Z M 1.640625 -12.9375 "/></g></g></g><g fill="#000000" fill-opacity="1"><g transform="translate(41.344826, 37.350747)"><g><path d="M 4.5 -3.515625 C 4.320312 -3.148438 4.019531 -2.738281 3.59375 -2.28125 C 3.164062 -1.832031 2.675781 -1.546875 2.125 -1.421875 C 1.570312 -1.304688 1.050781 -1.5 0.5625 -2 C 0.363281 -2.21875 0.21875 -2.46875 0.125 -2.75 C 0.0390625 -3.039062 0.0078125 -3.328125 0.03125 -3.609375 C 0.03125 -3.679688 0.03125 -3.773438 0.03125 -3.890625 C 0.03125 -4.191406 0.0390625 -4.535156 0.0625 -4.921875 C 0.09375 -5.304688 0.148438 -5.65625 0.234375 -5.96875 C 0.328125 -6.28125 0.472656 -6.46875 0.671875 -6.53125 C 1.222656 -6.675781 1.519531 -6.488281 1.5625 -5.96875 C 1.5625 -5.789062 1.554688 -5.617188 1.546875 -5.453125 C 1.535156 -5.367188 1.53125 -5.289062 1.53125 -5.21875 C 1.519531 -4.96875 1.507812 -4.722656 1.5 -4.484375 C 1.5 -4.296875 1.488281 -4.101562 1.46875 -3.90625 C 1.457031 -3.070312 1.644531 -2.570312 2.03125 -2.40625 C 2.414062 -2.25 2.859375 -2.421875 3.359375 -2.921875 C 3.859375 -3.421875 4.1875 -3.832031 4.34375 -4.15625 C 4.5 -4.488281 4.609375 -4.554688 4.671875 -4.359375 C 4.742188 -4.171875 4.6875 -3.890625 4.5 -3.515625 Z M 1.453125 -8.328125 C 1.378906 -8.265625 1.285156 -8.222656 1.171875 -8.203125 C 1.066406 -8.179688 0.972656 -8.191406 0.890625 -8.234375 C 0.828125 -8.285156 0.785156 -8.351562 0.765625 -8.4375 C 0.753906 -8.519531 0.75 -8.617188 0.75 -8.734375 C 0.75 -8.753906 0.753906 -8.773438 0.765625 -8.796875 C 0.773438 -8.898438 0.800781 -9.003906 0.84375 -9.109375 C 0.957031 -9.390625 1.195312 -9.519531 1.5625 -9.5 C 1.6875 -9.476562 1.785156 -9.425781 1.859375 -9.34375 C 1.929688 -9.257812 1.945312 -9.15625 1.90625 -9.03125 C 1.820312 -8.75 1.671875 -8.515625 1.453125 -8.328125 Z M 1.453125 -8.328125 "/></g></g></g><g fill="#000000" fill-opacity="1"><g transform="translate(45.609684, 37.350747)"><g><path d="M 9.828125 -4.46875 C 9.671875 -3.976562 9.351562 -3.414062 8.875 -2.78125 C 8.40625 -2.15625 7.816406 -1.753906 7.109375 -1.578125 C 6.410156 -1.398438 5.800781 -1.425781 5.28125 -1.65625 C 4.769531 -1.882812 4.488281 -2.5 4.4375 -3.5 C 3.84375 -2.363281 3.28125 -1.632812 2.75 -1.3125 C 2.226562 -0.988281 1.679688 -0.867188 1.109375 -0.953125 C 0.453125 -1.054688 0.0078125 -1.304688 -0.21875 -1.703125 C -0.445312 -2.097656 -0.519531 -2.554688 -0.4375 -3.078125 C -0.363281 -3.609375 -0.207031 -4.113281 0.03125 -4.59375 C 0.226562 -4.957031 0.492188 -5.289062 0.828125 -5.59375 C 1.171875 -5.90625 1.523438 -6.144531 1.890625 -6.3125 C 2.347656 -6.550781 2.804688 -6.660156 3.265625 -6.640625 C 3.734375 -6.628906 4.234375 -6.476562 4.765625 -6.1875 C 4.773438 -6.175781 4.78125 -6.1875 4.78125 -6.21875 C 4.78125 -6.269531 4.789062 -6.332031 4.8125 -6.40625 C 4.84375 -6.488281 4.890625 -6.554688 4.953125 -6.609375 C 5.128906 -6.734375 5.332031 -6.796875 5.5625 -6.796875 C 5.800781 -6.796875 5.988281 -6.675781 6.125 -6.4375 C 6.144531 -6.132812 6.109375 -5.742188 6.015625 -5.265625 C 5.828125 -4.222656 5.828125 -3.472656 6.015625 -3.015625 C 6.210938 -2.554688 6.550781 -2.34375 7.03125 -2.375 C 7.519531 -2.40625 8.148438 -2.882812 8.921875 -3.8125 C 9.691406 -4.738281 9.992188 -4.957031 9.828125 -4.46875 Z M 1.28125 -2.015625 C 1.539062 -1.828125 1.84375 -1.851562 2.1875 -2.09375 C 2.539062 -2.332031 2.875 -2.675781 3.1875 -3.125 C 3.507812 -3.570312 3.773438 -4.019531 3.984375 -4.46875 C 4.203125 -4.914062 4.328125 -5.242188 4.359375 -5.453125 C 3.703125 -5.804688 3.140625 -5.867188 2.671875 -5.640625 C 2.210938 -5.410156 1.847656 -5.035156 1.578125 -4.515625 C 1.304688 -3.992188 1.144531 -3.488281 1.09375 -3 C 1.039062 -2.507812 1.101562 -2.179688 1.28125 -2.015625 Z M 1.28125 -2.015625 "/></g></g></g><g fill="#000000" fill-opacity="1"><g transform="translate(54.816912, 37.350747)"><g/></g></g><g fill="#000000" fill-opacity="1"><g transform="translate(59.229433, 37.350747)"><g><path d="M 30.34375 -25.609375 C 31.5625 -24.804688 32.453125 -23.804688 33.015625 -22.609375 C 33.578125 -21.410156 33.753906 -20.144531 33.546875 -18.8125 C 33.285156 -17.175781 32.691406 -15.710938 31.765625 -14.421875 C 30.847656 -13.148438 29.796875 -12.007812 28.609375 -11 C 27.628906 -10.15625 26.609375 -9.367188 25.546875 -8.640625 C 24.492188 -7.921875 23.414062 -7.238281 22.3125 -6.59375 C 20.863281 -5.738281 19.390625 -4.898438 17.890625 -4.078125 C 17.242188 -3.722656 16.597656 -3.367188 15.953125 -3.015625 C 15.921875 -2.984375 15.882812 -2.957031 15.84375 -2.9375 C 15.757812 -2.882812 15.671875 -2.847656 15.578125 -2.828125 C 15.210938 -2.703125 14.957031 -2.519531 14.8125 -2.28125 C 14.675781 -2.039062 14.601562 -1.765625 14.59375 -1.453125 C 14.59375 -1.140625 14.609375 -0.816406 14.640625 -0.484375 C 14.648438 -0.328125 14.738281 -0.210938 14.90625 -0.140625 C 15.09375 -0.078125 15.28125 -0.0234375 15.46875 0.015625 C 16.3125 0.191406 17.148438 0.359375 17.984375 0.515625 C 19.390625 0.816406 20.800781 1.113281 22.21875 1.40625 C 23.769531 1.71875 25.320312 2.039062 26.875 2.375 C 27.820312 2.582031 28.773438 2.785156 29.734375 2.984375 C 29.992188 3.046875 30.253906 3.097656 30.515625 3.140625 C 30.804688 3.203125 31.097656 3.269531 31.390625 3.34375 C 31.609375 3.375 31.828125 3.4375 32.046875 3.53125 C 32.109375 3.5625 32.160156 3.601562 32.203125 3.65625 C 32.253906 3.71875 32.269531 3.796875 32.25 3.890625 C 32.238281 3.960938 32.207031 4.007812 32.15625 4.03125 C 32.113281 4.050781 32.066406 4.0625 32.015625 4.0625 C 31.835938 4.070312 31.65625 4.054688 31.46875 4.015625 C 30.664062 3.878906 29.863281 3.75 29.0625 3.625 C 27.71875 3.414062 26.378906 3.171875 25.046875 2.890625 C 22.890625 2.429688 20.734375 1.976562 18.578125 1.53125 C 18.117188 1.445312 17.65625 1.351562 17.1875 1.25 C 16.5 1.09375 15.796875 0.960938 15.078125 0.859375 C 14.773438 0.785156 14.625 0.914062 14.625 1.25 C 14.613281 1.476562 14.609375 1.703125 14.609375 1.921875 C 14.609375 2.035156 14.609375 2.148438 14.609375 2.265625 C 14.566406 5.984375 14.53125 9.707031 14.5 13.4375 C 14.5 13.476562 14.5 13.523438 14.5 13.578125 C 14.5 13.722656 14.488281 13.863281 14.46875 14 C 14.445312 14.34375 14.253906 14.488281 13.890625 14.4375 C 13.523438 14.382812 13.320312 14.195312 13.28125 13.875 C 13.257812 13.695312 13.253906 13.53125 13.265625 13.375 C 13.265625 13.34375 13.265625 13.320312 13.265625 13.3125 C 13.253906 11.34375 13.234375 9.410156 13.203125 7.515625 C 13.179688 5.585938 13.171875 3.632812 13.171875 1.65625 C 13.171875 1.5625 13.171875 1.460938 13.171875 1.359375 C 13.160156 1.191406 13.160156 1.03125 13.171875 0.875 C 13.179688 0.570312 13.050781 0.359375 12.78125 0.234375 C 12.75 0.222656 12.710938 0.210938 12.671875 0.203125 C 12.453125 0.109375 12.242188 0 12.046875 -0.125 C 11.453125 -0.519531 11.3125 -1 11.625 -1.5625 C 11.863281 -1.957031 12.179688 -2.269531 12.578125 -2.5 C 12.816406 -2.625 12.976562 -2.785156 13.0625 -2.984375 C 13.144531 -3.191406 13.1875 -3.441406 13.1875 -3.734375 C 13.175781 -6.972656 13.175781 -10.210938 13.1875 -13.453125 C 13.1875 -14.242188 13.1875 -15.035156 13.1875 -15.828125 C 13.1875 -15.859375 13.1875 -15.898438 13.1875 -15.953125 C 13.1875 -16.242188 13.191406 -16.53125 13.203125 -16.8125 C 13.242188 -17.175781 13.484375 -17.328125 13.921875 -17.265625 C 14.335938 -17.210938 14.550781 -16.992188 14.5625 -16.609375 C 14.5625 -16.378906 14.5625 -16.15625 14.5625 -15.9375 C 14.5625 -15.863281 14.5625 -15.789062 14.5625 -15.71875 C 14.582031 -13.9375 14.59375 -12.164062 14.59375 -10.40625 C 14.59375 -8.664062 14.597656 -6.921875 14.609375 -5.171875 C 14.609375 -5.160156 14.609375 -5.148438 14.609375 -5.140625 C 14.609375 -4.835938 14.613281 -4.550781 14.625 -4.28125 C 14.644531 -4 14.789062 -3.90625 15.0625 -4 C 15.15625 -4.039062 15.242188 -4.085938 15.328125 -4.140625 C 15.347656 -4.140625 15.359375 -4.140625 15.359375 -4.140625 C 16.929688 -4.984375 18.492188 -5.851562 20.046875 -6.75 C 21.597656 -7.65625 23.101562 -8.625 24.5625 -9.65625 C 25.570312 -10.363281 26.535156 -11.117188 27.453125 -11.921875 C 28.367188 -12.734375 29.203125 -13.640625 29.953125 -14.640625 C 30.765625 -15.691406 31.359375 -16.878906 31.734375 -18.203125 C 31.972656 -19.054688 32.035156 -19.960938 31.921875 -20.921875 C 31.722656 -22.378906 31.046875 -23.613281 29.890625 -24.625 C 29.335938 -25.09375 28.742188 -25.46875 28.109375 -25.75 C 25.765625 -26.84375 23.425781 -27.398438 21.09375 -27.421875 C 18.757812 -27.453125 16.507812 -27.070312 14.34375 -26.28125 C 12.1875 -25.5 10.207031 -24.429688 8.40625 -23.078125 C 6.613281 -21.734375 5.082031 -20.222656 3.8125 -18.546875 C 3.3125 -17.972656 2.875 -17.351562 2.5 -16.6875 C 2.25 -16.257812 2.023438 -15.820312 1.828125 -15.375 C 1.628906 -14.9375 1.5 -14.457031 1.4375 -13.9375 C 1.425781 -13.800781 1.378906 -13.707031 1.296875 -13.65625 C 1.210938 -13.601562 1.109375 -13.585938 0.984375 -13.609375 C 0.835938 -13.609375 0.695312 -13.628906 0.5625 -13.671875 C 0.257812 -13.773438 0.101562 -13.984375 0.09375 -14.296875 C 0.0820312 -14.703125 0.148438 -15.085938 0.296875 -15.453125 C 0.796875 -16.835938 1.519531 -18.070312 2.46875 -19.15625 C 3.925781 -20.851562 5.640625 -22.382812 7.609375 -23.75 C 9.585938 -25.125 11.734375 -26.207031 14.046875 -27 C 16.359375 -27.800781 18.75 -28.191406 21.21875 -28.171875 C 23.695312 -28.160156 26.15625 -27.625 28.59375 -26.5625 C 29.195312 -26.300781 29.78125 -25.984375 30.34375 -25.609375 Z M 30.34375 -25.609375 "/></g></g></g><g fill="#000000" fill-opacity="1"><g transform="translate(86.251781, 37.350747)"><g><path d="M 6.671875 -4.75 C 6.753906 -4.84375 6.800781 -4.738281 6.8125 -4.4375 C 6.820312 -4.132812 6.550781 -3.710938 6 -3.171875 C 5.445312 -2.640625 4.878906 -2.390625 4.296875 -2.421875 C 4.171875 -2.429688 4.0625 -2.421875 3.96875 -2.390625 C 3.882812 -2.359375 3.8125 -2.285156 3.75 -2.171875 C 3.6875 -2.066406 3.609375 -1.972656 3.515625 -1.890625 C 3.515625 -1.890625 3.507812 -1.882812 3.5 -1.875 C 3.144531 -1.488281 2.722656 -1.234375 2.234375 -1.109375 C 1.753906 -0.992188 1.296875 -1.03125 0.859375 -1.21875 C 0.421875 -1.414062 0.109375 -1.789062 -0.078125 -2.34375 C -0.210938 -2.84375 -0.222656 -3.335938 -0.109375 -3.828125 C -0.015625 -4.265625 0.140625 -4.675781 0.359375 -5.0625 C 0.628906 -5.570312 0.976562 -5.929688 1.40625 -6.140625 C 1.832031 -6.347656 2.3125 -6.460938 2.84375 -6.484375 C 3.644531 -6.523438 4.148438 -6.148438 4.359375 -5.359375 C 4.484375 -4.898438 4.515625 -4.4375 4.453125 -3.96875 C 4.441406 -3.863281 4.421875 -3.753906 4.390625 -3.640625 C 4.367188 -3.566406 4.351562 -3.492188 4.34375 -3.421875 C 4.3125 -3.160156 4.421875 -3.039062 4.671875 -3.0625 C 5.335938 -3.175781 6.003906 -3.738281 6.671875 -4.75 Z M 1.953125 -1.796875 C 2.359375 -1.984375 2.644531 -2.304688 2.8125 -2.765625 C 2.125 -3.203125 1.664062 -3.828125 1.4375 -4.640625 C 1.21875 -4.253906 1.082031 -3.804688 1.03125 -3.296875 C 0.988281 -2.785156 1.039062 -2.363281 1.1875 -2.03125 C 1.34375 -1.695312 1.597656 -1.617188 1.953125 -1.796875 Z M 3.125 -3.671875 C 3.226562 -3.828125 3.289062 -4.023438 3.3125 -4.265625 C 3.332031 -4.503906 3.320312 -4.738281 3.28125 -4.96875 C 3.238281 -5.207031 3.175781 -5.394531 3.09375 -5.53125 C 3.019531 -5.664062 2.9375 -5.703125 2.84375 -5.640625 C 2.6875 -5.503906 2.597656 -5.304688 2.578125 -5.046875 C 2.566406 -4.785156 2.609375 -4.523438 2.703125 -4.265625 C 2.796875 -4.003906 2.9375 -3.804688 3.125 -3.671875 Z M 3.125 -3.671875 "/></g></g></g><g fill="#000000" fill-opacity="1"><g transform="translate(92.7229, 37.350747)"><g><path d="M 13.640625 -4.234375 C 13.691406 -4.335938 13.769531 -4.390625 13.875 -4.390625 C 13.976562 -4.398438 14.066406 -4.335938 14.140625 -4.203125 C 14.171875 -4.160156 14.144531 -4.0625 14.0625 -3.90625 C 13.976562 -3.75 13.863281 -3.566406 13.71875 -3.359375 C 13.582031 -3.160156 13.453125 -2.976562 13.328125 -2.8125 C 13.203125 -2.65625 13.113281 -2.550781 13.0625 -2.5 C 12.488281 -1.851562 11.910156 -1.378906 11.328125 -1.078125 C 10.753906 -0.785156 10.125 -0.722656 9.4375 -0.890625 C 8.757812 -1.066406 8.003906 -1.550781 7.171875 -2.34375 C 7.046875 -2.488281 6.914062 -2.628906 6.78125 -2.765625 C 6.75 -2.804688 6.71875 -2.84375 6.6875 -2.875 C 6.550781 -3.03125 6.398438 -3.050781 6.234375 -2.9375 C 6.054688 -2.8125 5.878906 -2.6875 5.703125 -2.5625 C 5.546875 -2.4375 5.382812 -2.328125 5.21875 -2.234375 C 4.6875 -1.859375 4.117188 -1.546875 3.515625 -1.296875 C 2.878906 -1.015625 2.210938 -0.90625 1.515625 -0.96875 C 0.421875 -1.09375 -0.144531 -1.695312 -0.1875 -2.78125 C -0.195312 -3.539062 -0.0351562 -4.222656 0.296875 -4.828125 C 0.640625 -5.441406 1.113281 -5.890625 1.71875 -6.171875 C 2.320312 -6.460938 3.019531 -6.519531 3.8125 -6.34375 C 3.894531 -6.320312 4.007812 -6.296875 4.15625 -6.265625 C 4.238281 -6.234375 4.34375 -6.207031 4.46875 -6.1875 C 4.394531 -6.363281 4.328125 -6.523438 4.265625 -6.671875 C 4.148438 -6.898438 4.050781 -7.109375 3.96875 -7.296875 C 3.4375 -8.378906 3.003906 -9.617188 2.671875 -11.015625 C 2.347656 -12.410156 2.1875 -13.835938 2.1875 -15.296875 C 2.195312 -16.765625 2.441406 -18.128906 2.921875 -19.390625 C 3.410156 -20.660156 4.210938 -21.703125 5.328125 -22.515625 C 6.046875 -22.992188 6.785156 -23.253906 7.546875 -23.296875 C 8.304688 -23.335938 9.019531 -23.171875 9.6875 -22.796875 C 10.363281 -22.429688 10.914062 -21.878906 11.34375 -21.140625 C 11.882812 -20.117188 12.21875 -19.039062 12.34375 -17.90625 C 12.582031 -16.082031 12.546875 -14.378906 12.234375 -12.796875 C 11.929688 -11.210938 11.390625 -9.71875 10.609375 -8.3125 C 9.835938 -6.90625 8.847656 -5.539062 7.640625 -4.21875 C 7.523438 -4.082031 7.460938 -3.976562 7.453125 -3.90625 C 7.453125 -3.832031 7.507812 -3.726562 7.625 -3.59375 C 7.875 -3.269531 8.140625 -2.957031 8.421875 -2.65625 C 8.710938 -2.351562 9.035156 -2.101562 9.390625 -1.90625 C 9.878906 -1.6875 10.40625 -1.679688 10.96875 -1.890625 C 11.539062 -2.097656 12.066406 -2.421875 12.546875 -2.859375 C 13.035156 -3.304688 13.398438 -3.765625 13.640625 -4.234375 Z M 5.109375 -3.46875 C 5.253906 -3.601562 5.265625 -3.75 5.140625 -3.90625 C 5.066406 -4 4.992188 -4.097656 4.921875 -4.203125 C 4.710938 -4.453125 4.472656 -4.710938 4.203125 -4.984375 C 3.941406 -5.253906 3.664062 -5.457031 3.375 -5.59375 C 3.09375 -5.738281 2.800781 -5.75 2.5 -5.625 C 2.09375 -5.4375 1.757812 -5.097656 1.5 -4.609375 C 1.238281 -4.128906 1.082031 -3.632812 1.03125 -3.125 C 0.988281 -2.613281 1.085938 -2.222656 1.328125 -1.953125 C 1.578125 -1.691406 1.992188 -1.671875 2.578125 -1.890625 C 3.503906 -2.296875 4.347656 -2.820312 5.109375 -3.46875 Z M 7.03125 -5.359375 C 8.257812 -6.804688 9.175781 -8.226562 9.78125 -9.625 C 10.382812 -11.019531 10.796875 -12.648438 11.015625 -14.515625 C 11.078125 -14.972656 11.101562 -15.570312 11.09375 -16.3125 C 11.09375 -17.0625 11.023438 -17.835938 10.890625 -18.640625 C 10.765625 -19.453125 10.535156 -20.1875 10.203125 -20.84375 C 9.878906 -21.507812 9.421875 -21.988281 8.828125 -22.28125 C 8.234375 -22.570312 7.472656 -22.570312 6.546875 -22.28125 C 5.523438 -21.6875 4.765625 -20.894531 4.265625 -19.90625 C 3.773438 -18.914062 3.492188 -17.816406 3.421875 -16.609375 C 3.359375 -15.398438 3.441406 -14.160156 3.671875 -12.890625 C 3.898438 -11.628906 4.21875 -10.429688 4.625 -9.296875 C 5.03125 -8.171875 5.46875 -7.1875 5.9375 -6.34375 C 5.988281 -6.238281 6.039062 -6.132812 6.09375 -6.03125 C 6.238281 -5.6875 6.441406 -5.375 6.703125 -5.09375 C 6.742188 -5.132812 6.785156 -5.171875 6.828125 -5.203125 C 6.898438 -5.242188 6.96875 -5.296875 7.03125 -5.359375 Z M 7.03125 -5.359375 "/></g></g></g><g fill="#000000" fill-opacity="1"><g transform="translate(106.273161, 37.350747)"><g><path d="M 5.546875 -4.15625 C 5.648438 -4.382812 5.722656 -4.488281 5.765625 -4.46875 C 5.804688 -4.457031 5.816406 -4.367188 5.796875 -4.203125 C 5.773438 -4.035156 5.738281 -3.847656 5.6875 -3.640625 C 5.613281 -3.316406 5.484375 -2.945312 5.296875 -2.53125 C 5.109375 -2.113281 4.90625 -1.734375 4.6875 -1.390625 C 4.351562 -0.910156 3.9375 -0.550781 3.4375 -0.3125 C 2.9375 -0.0703125 2.484375 -0.015625 2.078125 -0.140625 C 1.679688 -0.265625 1.453125 -0.644531 1.390625 -1.28125 C 1.378906 -1.8125 1.425781 -2.394531 1.53125 -3.03125 C 1.5625 -3.300781 1.597656 -3.5625 1.640625 -3.8125 C 1.640625 -3.90625 1.613281 -3.976562 1.5625 -4.03125 C 1.519531 -4.082031 1.460938 -4.097656 1.390625 -4.078125 C 1.335938 -4.078125 1.28125 -4.078125 1.21875 -4.078125 C 0.894531 -4.023438 0.570312 -4.035156 0.25 -4.109375 C -0.144531 -4.222656 -0.375 -4.414062 -0.4375 -4.6875 C -0.5 -4.957031 -0.492188 -5.316406 -0.421875 -5.765625 C -0.378906 -6.085938 -0.257812 -6.328125 -0.0625 -6.484375 C 0.125 -6.640625 0.351562 -6.707031 0.625 -6.6875 C 1 -6.644531 1.175781 -6.5 1.15625 -6.25 C 1.144531 -6.007812 1.078125 -5.742188 0.953125 -5.453125 C 0.835938 -5.210938 0.773438 -5.015625 0.765625 -4.859375 C 0.765625 -4.703125 0.90625 -4.644531 1.1875 -4.6875 C 1.25 -4.707031 1.316406 -4.726562 1.390625 -4.75 C 1.492188 -4.789062 1.613281 -4.828125 1.75 -4.859375 C 1.882812 -4.890625 2.054688 -4.898438 2.265625 -4.890625 C 2.523438 -4.867188 2.695312 -4.75 2.78125 -4.53125 C 2.863281 -4.3125 2.898438 -4.03125 2.890625 -3.6875 C 2.878906 -3.351562 2.847656 -3.015625 2.796875 -2.671875 C 2.722656 -2.234375 2.6875 -1.859375 2.6875 -1.546875 C 2.6875 -1.242188 2.78125 -1.066406 2.96875 -1.015625 C 3.195312 -0.941406 3.546875 -1.148438 4.015625 -1.640625 C 4.492188 -2.140625 5.003906 -2.976562 5.546875 -4.15625 Z M 5.546875 -4.15625 "/></g></g></g><g fill="#000000" fill-opacity="1"><g transform="translate(111.589033, 37.350747)"><g><path d="M 4.5 -3.515625 C 4.320312 -3.148438 4.019531 -2.738281 3.59375 -2.28125 C 3.164062 -1.832031 2.675781 -1.546875 2.125 -1.421875 C 1.570312 -1.304688 1.050781 -1.5 0.5625 -2 C 0.363281 -2.21875 0.21875 -2.46875 0.125 -2.75 C 0.0390625 -3.039062 0.0078125 -3.328125 0.03125 -3.609375 C 0.03125 -3.679688 0.03125 -3.773438 0.03125 -3.890625 C 0.03125 -4.191406 0.0390625 -4.535156 0.0625 -4.921875 C 0.09375 -5.304688 0.148438 -5.65625 0.234375 -5.96875 C 0.328125 -6.28125 0.472656 -6.46875 0.671875 -6.53125 C 1.222656 -6.675781 1.519531 -6.488281 1.5625 -5.96875 C 1.5625 -5.789062 1.554688 -5.617188 1.546875 -5.453125 C 1.535156 -5.367188 1.53125 -5.289062 1.53125 -5.21875 C 1.519531 -4.96875 1.507812 -4.722656 1.5 -4.484375 C 1.5 -4.296875 1.488281 -4.101562 1.46875 -3.90625 C 1.457031 -3.070312 1.644531 -2.570312 2.03125 -2.40625 C 2.414062 -2.25 2.859375 -2.421875 3.359375 -2.921875 C 3.859375 -3.421875 4.1875 -3.832031 4.34375 -4.15625 C 4.5 -4.488281 4.609375 -4.554688 4.671875 -4.359375 C 4.742188 -4.171875 4.6875 -3.890625 4.5 -3.515625 Z M 1.453125 -8.328125 C 1.378906 -8.265625 1.285156 -8.222656 1.171875 -8.203125 C 1.066406 -8.179688 0.972656 -8.191406 0.890625 -8.234375 C 0.828125 -8.285156 0.785156 -8.351562 0.765625 -8.4375 C 0.753906 -8.519531 0.75 -8.617188 0.75 -8.734375 C 0.75 -8.753906 0.753906 -8.773438 0.765625 -8.796875 C 0.773438 -8.898438 0.800781 -9.003906 0.84375 -9.109375 C 0.957031 -9.390625 1.195312 -9.519531 1.5625 -9.5 C 1.6875 -9.476562 1.785156 -9.425781 1.859375 -9.34375 C 1.929688 -9.257812 1.945312 -9.15625 1.90625 -9.03125 C 1.820312 -8.75 1.671875 -8.515625 1.453125 -8.328125 Z M 1.453125 -8.328125 "/></g></g></g><g fill="#000000" fill-opacity="1"><g transform="translate(115.853891, 37.350747)"><g><path d="M 9.453125 -4.390625 C 9.566406 -4.421875 9.660156 -4.429688 9.734375 -4.421875 C 9.816406 -4.410156 9.863281 -4.378906 9.875 -4.328125 C 9.882812 -4.285156 9.8125 -4.210938 9.65625 -4.109375 C 9.59375 -4.066406 9.515625 -4.015625 9.421875 -3.953125 C 9.117188 -3.734375 8.765625 -3.488281 8.359375 -3.21875 C 7.921875 -2.925781 7.523438 -2.65625 7.171875 -2.40625 C 6.816406 -2.164062 6.582031 -1.976562 6.46875 -1.84375 C 6.34375 -1.664062 6.257812 -1.472656 6.21875 -1.265625 C 6.1875 -1.054688 6.164062 -0.828125 6.15625 -0.578125 C 6.144531 -0.390625 6.125 -0.203125 6.09375 -0.015625 C 5.769531 2.035156 5.210938 3.785156 4.421875 5.234375 C 3.640625 6.691406 2.753906 7.847656 1.765625 8.703125 C 0.785156 9.566406 -0.164062 10.128906 -1.09375 10.390625 C -2.03125 10.660156 -2.820312 10.628906 -3.46875 10.296875 C -4.113281 9.960938 -4.492188 9.332031 -4.609375 8.40625 C -4.671875 7.644531 -4.515625 6.875 -4.140625 6.09375 C -3.773438 5.3125 -3.28125 4.5625 -2.65625 3.84375 C -2.039062 3.125 -1.390625 2.460938 -0.703125 1.859375 C -0.015625 1.265625 0.617188 0.769531 1.203125 0.375 C 1.367188 0.257812 1.539062 0.144531 1.71875 0.03125 C 2.550781 -0.539062 3.394531 -1.097656 4.25 -1.640625 C 4.789062 -1.941406 5.046875 -2.382812 5.015625 -2.96875 C 5.015625 -3.03125 5.015625 -3.117188 5.015625 -3.234375 C 4.992188 -3.410156 4.984375 -3.59375 4.984375 -3.78125 C 4.660156 -3.257812 4.195312 -2.785156 3.59375 -2.359375 C 2.988281 -1.941406 2.375 -1.640625 1.75 -1.453125 C 1.125 -1.273438 0.585938 -1.285156 0.140625 -1.484375 C -0.304688 -1.691406 -0.539062 -2.164062 -0.5625 -2.90625 C -0.539062 -3.28125 -0.425781 -3.628906 -0.21875 -3.953125 C 0.257812 -4.804688 0.925781 -5.476562 1.78125 -5.96875 C 2.101562 -6.132812 2.488281 -6.253906 2.9375 -6.328125 C 3.382812 -6.410156 3.816406 -6.40625 4.234375 -6.3125 C 4.660156 -6.226562 5 -6.023438 5.25 -5.703125 C 5.320312 -5.804688 5.414062 -5.875 5.53125 -5.90625 C 5.65625 -5.945312 5.769531 -5.96875 5.875 -5.96875 C 5.894531 -5.96875 5.910156 -5.96875 5.921875 -5.96875 C 6.398438 -6.007812 6.625 -5.789062 6.59375 -5.3125 C 6.582031 -4.957031 6.570312 -4.613281 6.5625 -4.28125 C 6.550781 -4.019531 6.535156 -3.769531 6.515625 -3.53125 C 6.535156 -3.238281 6.695312 -3.140625 7 -3.234375 C 7.300781 -3.335938 7.671875 -3.515625 8.109375 -3.765625 C 8.609375 -4.054688 9.054688 -4.265625 9.453125 -4.390625 Z M 3.859375 -3.90625 C 4.398438 -4.445312 4.695312 -4.863281 4.75 -5.15625 C 4.613281 -5.382812 4.410156 -5.519531 4.140625 -5.5625 C 3.878906 -5.613281 3.609375 -5.613281 3.328125 -5.5625 C 3.046875 -5.507812 2.8125 -5.425781 2.625 -5.3125 C 2.09375 -4.976562 1.703125 -4.570312 1.453125 -4.09375 C 1.210938 -3.625 1.125 -3.222656 1.1875 -2.890625 C 1.25 -2.554688 1.492188 -2.441406 1.921875 -2.546875 C 2.359375 -2.660156 3.003906 -3.113281 3.859375 -3.90625 Z M 4.59375 -0.109375 C 4.59375 -0.117188 4.597656 -0.128906 4.609375 -0.140625 C 4.617188 -0.222656 4.628906 -0.320312 4.640625 -0.4375 C 4.660156 -0.550781 4.660156 -0.644531 4.640625 -0.71875 C 4.617188 -0.789062 4.570312 -0.800781 4.5 -0.75 C 3.957031 -0.382812 3.394531 0.0195312 2.8125 0.46875 C 2.46875 0.726562 2.140625 0.960938 1.828125 1.171875 C 1.398438 1.492188 0.898438 1.910156 0.328125 2.421875 C -0.242188 2.929688 -0.804688 3.5 -1.359375 4.125 C -1.910156 4.757812 -2.363281 5.40625 -2.71875 6.0625 C -3.070312 6.726562 -3.25 7.367188 -3.25 7.984375 C -3.207031 8.847656 -2.960938 9.367188 -2.515625 9.546875 C -2.066406 9.722656 -1.503906 9.613281 -0.828125 9.21875 C -0.160156 8.820312 0.535156 8.179688 1.265625 7.296875 C 1.992188 6.421875 2.65625 5.351562 3.25 4.09375 C 3.851562 2.832031 4.300781 1.429688 4.59375 -0.109375 Z M 4.59375 -0.109375 "/></g></g></g><g fill="#000000" fill-opacity="1"><g transform="translate(125.052434, 37.350747)"><g><path d="M 8.984375 -4.375 C 9.109375 -4.363281 9.082031 -4.1875 8.90625 -3.84375 C 8.738281 -3.507812 8.457031 -3.117188 8.0625 -2.671875 C 7.675781 -2.234375 7.242188 -1.851562 6.765625 -1.53125 C 6.285156 -1.21875 5.800781 -1.078125 5.3125 -1.109375 C 4.957031 -1.140625 4.691406 -1.242188 4.515625 -1.421875 C 4.347656 -1.597656 4.234375 -1.796875 4.171875 -2.015625 C 4.109375 -2.234375 4.066406 -2.425781 4.046875 -2.59375 C 4.035156 -2.707031 4.019531 -2.789062 4 -2.84375 C 3.988281 -2.90625 3.957031 -2.910156 3.90625 -2.859375 C 3.53125 -2.003906 2.882812 -1.578125 1.96875 -1.578125 C 1.457031 -1.578125 1.039062 -1.800781 0.71875 -2.25 C 0.40625 -2.707031 0.207031 -3.273438 0.125 -3.953125 C 0.0390625 -4.640625 0.109375 -5.332031 0.328125 -6.03125 C 0.378906 -6.257812 0.519531 -6.421875 0.75 -6.515625 C 0.90625 -6.578125 1.070312 -6.566406 1.25 -6.484375 C 1.425781 -6.410156 1.519531 -6.300781 1.53125 -6.15625 C 1.53125 -6 1.519531 -5.84375 1.5 -5.6875 C 1.46875 -5.570312 1.445312 -5.460938 1.4375 -5.359375 C 1.414062 -4.941406 1.421875 -4.484375 1.453125 -3.984375 C 1.492188 -3.484375 1.625 -3.0625 1.84375 -2.71875 C 2.070312 -2.425781 2.316406 -2.382812 2.578125 -2.59375 C 2.847656 -2.8125 3.082031 -3.144531 3.28125 -3.59375 C 3.4375 -3.945312 3.554688 -4.296875 3.640625 -4.640625 C 3.734375 -4.992188 3.796875 -5.265625 3.828125 -5.453125 C 3.847656 -5.535156 3.859375 -5.585938 3.859375 -5.609375 C 3.898438 -5.765625 3.941406 -5.914062 3.984375 -6.0625 C 4.046875 -6.269531 4.109375 -6.476562 4.171875 -6.6875 C 4.285156 -7.070312 4.5625 -7.234375 5 -7.171875 C 5.269531 -7.148438 5.421875 -7.019531 5.453125 -6.78125 C 5.472656 -6.445312 5.476562 -6.113281 5.46875 -5.78125 C 5.457031 -5.4375 5.4375 -5.097656 5.40625 -4.765625 C 5.382812 -4.285156 5.367188 -3.8125 5.359375 -3.34375 C 5.335938 -2.644531 5.472656 -2.238281 5.765625 -2.125 C 6.054688 -2.019531 6.40625 -2.097656 6.8125 -2.359375 C 7.226562 -2.617188 7.628906 -2.972656 8.015625 -3.421875 C 8.046875 -3.453125 8.085938 -3.503906 8.140625 -3.578125 C 8.210938 -3.671875 8.300781 -3.773438 8.40625 -3.890625 C 8.519531 -4.015625 8.628906 -4.125 8.734375 -4.21875 C 8.835938 -4.3125 8.921875 -4.363281 8.984375 -4.375 Z M 8.984375 -4.375 "/></g></g></g><g fill="#000000" fill-opacity="1"><g transform="translate(133.521347, 37.350747)"><g><path d="M 8.375 -4.203125 C 8.5 -4.273438 8.625 -4.332031 8.75 -4.375 C 8.875 -4.414062 8.953125 -4.410156 8.984375 -4.359375 C 9.023438 -4.316406 8.976562 -4.210938 8.84375 -4.046875 C 8.40625 -3.546875 7.882812 -3.085938 7.28125 -2.671875 C 6.675781 -2.265625 6.050781 -1.921875 5.40625 -1.640625 C 4.914062 -1.410156 4.390625 -1.226562 3.828125 -1.09375 C 3.273438 -0.957031 2.726562 -0.925781 2.1875 -1 C 1.644531 -1.082031 1.15625 -1.328125 0.71875 -1.734375 C 0.0390625 -2.359375 -0.238281 -3.117188 -0.125 -4.015625 C -0.03125 -4.734375 0.242188 -5.34375 0.703125 -5.84375 C 1.171875 -6.351562 1.753906 -6.695312 2.453125 -6.875 C 3.035156 -7 3.617188 -7.015625 4.203125 -6.921875 C 4.472656 -6.878906 4.71875 -6.785156 4.9375 -6.640625 C 5.132812 -6.484375 5.242188 -6.300781 5.265625 -6.09375 C 5.285156 -5.882812 5.207031 -5.6875 5.03125 -5.5 C 4.65625 -5.164062 4.226562 -4.96875 3.75 -4.90625 C 3.195312 -4.8125 2.648438 -4.753906 2.109375 -4.734375 C 1.835938 -4.734375 1.644531 -4.675781 1.53125 -4.5625 C 1.425781 -4.457031 1.367188 -4.269531 1.359375 -4 C 1.265625 -3.28125 1.492188 -2.691406 2.046875 -2.234375 C 2.390625 -1.960938 2.804688 -1.847656 3.296875 -1.890625 C 3.785156 -1.929688 4.304688 -2.0625 4.859375 -2.28125 C 5.410156 -2.5 5.945312 -2.757812 6.46875 -3.0625 C 7 -3.363281 7.476562 -3.644531 7.90625 -3.90625 C 8.082031 -4.019531 8.238281 -4.117188 8.375 -4.203125 Z M 2.34375 -5.75 C 2.34375 -5.738281 2.332031 -5.734375 2.3125 -5.734375 C 2.289062 -5.703125 2.257812 -5.671875 2.21875 -5.640625 C 2.175781 -5.609375 2.140625 -5.578125 2.109375 -5.546875 C 2.078125 -5.515625 2.0625 -5.492188 2.0625 -5.484375 C 2.070312 -5.441406 2.175781 -5.429688 2.375 -5.453125 C 2.570312 -5.472656 2.789062 -5.503906 3.03125 -5.546875 C 3.269531 -5.597656 3.46875 -5.664062 3.625 -5.75 C 3.78125 -5.84375 3.828125 -5.945312 3.765625 -6.0625 C 3.742188 -6.09375 3.707031 -6.117188 3.65625 -6.140625 C 3.613281 -6.171875 3.566406 -6.191406 3.515625 -6.203125 C 3.285156 -6.203125 3.070312 -6.15625 2.875 -6.0625 C 2.6875 -5.976562 2.507812 -5.875 2.34375 -5.75 Z M 2.34375 -5.75 "/></g></g></g><g fill="#000000" fill-opacity="1"><g transform="translate(141.929458, 37.350747)"><g><path d="M 5.28125 -4.734375 C 5.28125 -4.609375 5 -4.375 4.4375 -4.03125 C 3.875 -3.695312 3.457031 -3.441406 3.1875 -3.265625 C 2.925781 -3.097656 2.796875 -2.992188 2.796875 -2.953125 C 2.847656 -2.835938 2.898438 -2.644531 2.953125 -2.375 C 3.015625 -2.101562 3.035156 -1.804688 3.015625 -1.484375 C 3.003906 -1.171875 2.898438 -0.890625 2.703125 -0.640625 C 2.515625 -0.390625 2.195312 -0.238281 1.75 -0.1875 C 1.3125 -0.144531 0.914062 -0.207031 0.5625 -0.375 C 0.207031 -0.550781 -0.0078125 -0.800781 -0.09375 -1.125 C -0.1875 -1.445312 -0.0820312 -1.828125 0.21875 -2.265625 C 0.425781 -2.515625 0.671875 -2.726562 0.953125 -2.90625 C 1.054688 -2.96875 1.160156 -3.035156 1.265625 -3.109375 C 0.921875 -3.484375 0.59375 -3.863281 0.28125 -4.25 C -0.0195312 -4.632812 -0.210938 -4.984375 -0.296875 -5.296875 C -0.390625 -5.648438 -0.332031 -5.984375 -0.125 -6.296875 C 0.0820312 -6.609375 0.445312 -6.789062 0.96875 -6.84375 C 1.226562 -6.863281 1.46875 -6.847656 1.6875 -6.796875 C 1.914062 -6.742188 2.125 -6.632812 2.3125 -6.46875 C 2.351562 -6.425781 2.378906 -6.378906 2.390625 -6.328125 C 2.410156 -6.285156 2.40625 -6.226562 2.375 -6.15625 C 2.3125 -6.039062 2.210938 -5.984375 2.078125 -5.984375 C 1.992188 -5.984375 1.90625 -5.992188 1.8125 -6.015625 C 1.71875 -6.054688 1.632812 -6.09375 1.5625 -6.125 C 1.507812 -6.15625 1.460938 -6.179688 1.421875 -6.203125 C 1.253906 -6.265625 1.125 -6.253906 1.03125 -6.171875 C 0.9375 -6.097656 0.890625 -5.976562 0.890625 -5.8125 C 0.898438 -5.507812 1.019531 -5.191406 1.25 -4.859375 C 1.488281 -4.523438 1.722656 -4.210938 1.953125 -3.921875 C 2.035156 -3.828125 2.113281 -3.734375 2.1875 -3.640625 C 2.25 -3.578125 2.414062 -3.585938 2.6875 -3.671875 C 2.957031 -3.753906 3.457031 -3.984375 4.1875 -4.359375 C 4.914062 -4.742188 5.28125 -4.867188 5.28125 -4.734375 Z M 1.390625 -0.828125 C 1.554688 -0.847656 1.664062 -0.941406 1.71875 -1.109375 C 1.769531 -1.285156 1.785156 -1.476562 1.765625 -1.6875 C 1.753906 -1.894531 1.742188 -2.050781 1.734375 -2.15625 C 1.710938 -2.21875 1.671875 -2.253906 1.609375 -2.265625 C 1.554688 -2.285156 1.503906 -2.285156 1.453125 -2.265625 C 1.265625 -2.117188 1.125 -1.925781 1.03125 -1.6875 C 0.9375 -1.457031 0.941406 -1.257812 1.046875 -1.09375 C 1.085938 -1.019531 1.132812 -0.960938 1.1875 -0.921875 C 1.25 -0.878906 1.316406 -0.847656 1.390625 -0.828125 Z M 1.390625 -0.828125 "/></g></g></g><g fill="#000000" fill-opacity="1"><g transform="translate(32.520936, 57.870852)"><g><path d="M 1.09375 0 L 0.5625 0 L 0.5625 -4.640625 L 2.65625 -4.640625 C 3.144531 -4.640625 3.535156 -4.503906 3.828125 -4.234375 C 4.109375 -3.960938 4.25 -3.597656 4.25 -3.140625 C 4.25 -2.679688 4.101562 -2.316406 3.8125 -2.046875 C 3.53125 -1.785156 3.144531 -1.65625 2.65625 -1.65625 L 1.09375 -1.65625 Z M 1.09375 -4.140625 L 1.09375 -2.140625 L 2.625 -2.140625 C 2.976562 -2.140625 3.25 -2.226562 3.4375 -2.40625 C 3.625 -2.582031 3.71875 -2.828125 3.71875 -3.140625 C 3.71875 -3.453125 3.625 -3.695312 3.4375 -3.875 C 3.25 -4.050781 2.976562 -4.140625 2.625 -4.140625 Z M 1.09375 -4.140625 "/></g></g></g><g fill="#000000" fill-opacity="1"><g transform="translate(36.916982, 57.870852)"><g><path d="M 2.515625 -2.5625 C 2.460938 -2.925781 2.164062 -3.109375 1.625 -3.109375 C 1.09375 -3.109375 0.828125 -2.941406 0.828125 -2.609375 C 0.828125 -2.460938 0.882812 -2.351562 1 -2.28125 C 1.113281 -2.207031 1.253906 -2.144531 1.421875 -2.09375 C 1.597656 -2.050781 1.785156 -2.007812 1.984375 -1.96875 C 2.191406 -1.9375 2.378906 -1.882812 2.546875 -1.8125 C 2.722656 -1.738281 2.867188 -1.640625 2.984375 -1.515625 C 3.097656 -1.390625 3.15625 -1.21875 3.15625 -1 C 3.15625 -0.65625 3.023438 -0.390625 2.765625 -0.203125 C 2.515625 -0.0234375 2.171875 0.0625 1.734375 0.0625 C 1.265625 0.0625 0.890625 -0.0546875 0.609375 -0.296875 C 0.359375 -0.503906 0.222656 -0.769531 0.203125 -1.09375 L 0.75 -1.09375 C 0.789062 -0.769531 0.972656 -0.554688 1.296875 -0.453125 C 1.421875 -0.410156 1.539062 -0.390625 1.65625 -0.390625 C 1.78125 -0.390625 1.894531 -0.394531 2 -0.40625 C 2.101562 -0.425781 2.203125 -0.453125 2.296875 -0.484375 C 2.515625 -0.578125 2.625 -0.726562 2.625 -0.9375 C 2.625 -1.082031 2.566406 -1.191406 2.453125 -1.265625 C 2.335938 -1.347656 2.191406 -1.414062 2.015625 -1.46875 C 1.847656 -1.519531 1.660156 -1.5625 1.453125 -1.59375 C 1.253906 -1.632812 1.066406 -1.691406 0.890625 -1.765625 C 0.722656 -1.835938 0.582031 -1.929688 0.46875 -2.046875 C 0.351562 -2.171875 0.296875 -2.34375 0.296875 -2.5625 C 0.296875 -2.875 0.410156 -3.117188 0.640625 -3.296875 C 0.878906 -3.472656 1.222656 -3.5625 1.671875 -3.5625 C 2.097656 -3.5625 2.4375 -3.457031 2.6875 -3.25 C 2.894531 -3.070312 3.015625 -2.84375 3.046875 -2.5625 Z M 2.515625 -2.5625 "/></g></g></g><g fill="#000000" fill-opacity="1"><g transform="translate(40.291017, 57.870852)"><g><path d="M 0.453125 -3.5 L 0.984375 -3.5 L 0.984375 0 L 0.453125 0 Z M 1 -4.78125 L 1 -4.09375 L 0.4375 -4.09375 L 0.4375 -4.78125 Z M 1 -4.78125 "/></g></g></g><g fill="#000000" fill-opacity="1"><g transform="translate(41.726035, 57.870852)"><g><path d="M 2.078125 -0.421875 C 2.296875 -0.421875 2.488281 -0.484375 2.65625 -0.609375 C 2.832031 -0.734375 2.960938 -0.894531 3.046875 -1.09375 L 3.609375 -1.09375 C 3.503906 -0.75 3.3125 -0.472656 3.03125 -0.265625 C 2.726562 -0.046875 2.367188 0.0625 1.953125 0.0625 C 1.441406 0.0625 1.023438 -0.113281 0.703125 -0.46875 C 0.390625 -0.8125 0.234375 -1.238281 0.234375 -1.75 C 0.234375 -2.257812 0.390625 -2.6875 0.703125 -3.03125 C 1.023438 -3.382812 1.441406 -3.5625 1.953125 -3.5625 C 2.367188 -3.5625 2.726562 -3.453125 3.03125 -3.234375 C 3.3125 -3.023438 3.503906 -2.75 3.609375 -2.40625 L 3.046875 -2.40625 C 2.960938 -2.601562 2.832031 -2.765625 2.65625 -2.890625 C 2.488281 -3.015625 2.289062 -3.078125 2.0625 -3.078125 C 1.84375 -3.078125 1.65625 -3.039062 1.5 -2.96875 C 1.34375 -2.90625 1.210938 -2.8125 1.109375 -2.6875 C 0.878906 -2.4375 0.765625 -2.125 0.765625 -1.75 C 0.765625 -1.375 0.878906 -1.0625 1.109375 -0.8125 C 1.335938 -0.550781 1.660156 -0.421875 2.078125 -0.421875 Z M 2.078125 -0.421875 "/></g></g></g><g fill="#000000" fill-opacity="1"><g transform="translate(45.534073, 57.870852)"><g><path d="M 1.96875 -3.5625 C 2.5 -3.5625 2.925781 -3.382812 3.25 -3.03125 C 3.550781 -2.695312 3.703125 -2.269531 3.703125 -1.75 C 3.703125 -1.226562 3.550781 -0.800781 3.25 -0.46875 C 2.925781 -0.113281 2.5 0.0625 1.96875 0.0625 C 1.445312 0.0625 1.023438 -0.113281 0.703125 -0.46875 C 0.390625 -0.800781 0.234375 -1.226562 0.234375 -1.75 C 0.234375 -2.269531 0.390625 -2.695312 0.703125 -3.03125 C 1.023438 -3.382812 1.445312 -3.5625 1.96875 -3.5625 Z M 1.96875 -0.421875 C 2.351562 -0.421875 2.65625 -0.550781 2.875 -0.8125 C 3.082031 -1.0625 3.1875 -1.375 3.1875 -1.75 C 3.1875 -2.125 3.082031 -2.4375 2.875 -2.6875 C 2.65625 -2.945312 2.351562 -3.078125 1.96875 -3.078125 C 1.59375 -3.078125 1.296875 -2.945312 1.078125 -2.6875 C 0.867188 -2.4375 0.765625 -2.125 0.765625 -1.75 C 0.765625 -1.375 0.867188 -1.0625 1.078125 -0.8125 C 1.296875 -0.550781 1.59375 -0.421875 1.96875 -0.421875 Z M 1.90625 -4.71875 L 2.65625 -4.71875 L 1.90625 -3.984375 L 1.484375 -3.984375 Z M 1.90625 -4.71875 "/></g></g></g><g fill="#000000" fill-opacity="1"><g transform="translate(49.482115, 57.870852)"><g><path d="M 0.984375 0 L 0.453125 0 L 0.453125 -4.90625 L 0.984375 -4.90625 Z M 0.984375 0 "/></g></g></g><g fill="#000000" fill-opacity="1"><g transform="translate(50.917132, 57.870852)"><g><path d="M 1.96875 -3.5625 C 2.5 -3.5625 2.925781 -3.382812 3.25 -3.03125 C 3.550781 -2.695312 3.703125 -2.269531 3.703125 -1.75 C 3.703125 -1.226562 3.550781 -0.800781 3.25 -0.46875 C 2.925781 -0.113281 2.5 0.0625 1.96875 0.0625 C 1.445312 0.0625 1.023438 -0.113281 0.703125 -0.46875 C 0.390625 -0.800781 0.234375 -1.226562 0.234375 -1.75 C 0.234375 -2.269531 0.390625 -2.695312 0.703125 -3.03125 C 1.023438 -3.382812 1.445312 -3.5625 1.96875 -3.5625 Z M 1.96875 -0.421875 C 2.351562 -0.421875 2.65625 -0.550781 2.875 -0.8125 C 3.082031 -1.0625 3.1875 -1.375 3.1875 -1.75 C 3.1875 -2.125 3.082031 -2.4375 2.875 -2.6875 C 2.65625 -2.945312 2.351562 -3.078125 1.96875 -3.078125 C 1.59375 -3.078125 1.296875 -2.945312 1.078125 -2.6875 C 0.867188 -2.4375 0.765625 -2.125 0.765625 -1.75 C 0.765625 -1.375 0.867188 -1.0625 1.078125 -0.8125 C 1.296875 -0.550781 1.59375 -0.421875 1.96875 -0.421875 Z M 1.96875 -0.421875 "/></g></g></g><g fill="#000000" fill-opacity="1"><g transform="translate(54.865174, 57.870852)"><g><path d="M 3.1875 -2.9375 L 3.1875 -3.5 L 3.703125 -3.5 L 3.703125 -0.109375 C 3.703125 0.398438 3.554688 0.785156 3.265625 1.046875 C 2.984375 1.304688 2.597656 1.4375 2.109375 1.4375 C 1.628906 1.4375 1.253906 1.34375 0.984375 1.15625 C 0.710938 0.96875 0.523438 0.722656 0.421875 0.421875 L 1.015625 0.421875 C 1.160156 0.785156 1.5 0.96875 2.03125 0.96875 C 2.4375 0.96875 2.726562 0.875 2.90625 0.6875 C 3.09375 0.5 3.1875 0.222656 3.1875 -0.140625 L 3.1875 -0.625 C 2.90625 -0.207031 2.488281 0 1.9375 0 C 1.425781 0 1.015625 -0.171875 0.703125 -0.515625 C 0.390625 -0.847656 0.234375 -1.269531 0.234375 -1.78125 C 0.234375 -2.28125 0.390625 -2.695312 0.703125 -3.03125 C 1.015625 -3.382812 1.4375 -3.5625 1.96875 -3.5625 C 2.5 -3.5625 2.90625 -3.351562 3.1875 -2.9375 Z M 2 -0.46875 C 2.1875 -0.46875 2.351562 -0.5 2.5 -0.5625 C 2.65625 -0.632812 2.785156 -0.734375 2.890625 -0.859375 C 3.109375 -1.097656 3.21875 -1.40625 3.21875 -1.78125 C 3.21875 -2.15625 3.109375 -2.460938 2.890625 -2.703125 C 2.671875 -2.953125 2.375 -3.078125 2 -3.078125 C 1.625 -3.078125 1.320312 -2.953125 1.09375 -2.703125 C 0.875 -2.453125 0.765625 -2.144531 0.765625 -1.78125 C 0.765625 -1.40625 0.875 -1.097656 1.09375 -0.859375 C 1.320312 -0.597656 1.625 -0.46875 2 -0.46875 Z M 2 -0.46875 "/></g></g></g><g fill="#000000" fill-opacity="1"><g transform="translate(59.030213, 57.870852)"><g><path d="M 3.1875 -0.5625 C 2.90625 -0.144531 2.488281 0.0625 1.9375 0.0625 C 1.425781 0.0625 1.015625 -0.113281 0.703125 -0.46875 C 0.390625 -0.8125 0.234375 -1.238281 0.234375 -1.75 C 0.234375 -2.257812 0.390625 -2.6875 0.703125 -3.03125 C 1.015625 -3.382812 1.4375 -3.5625 1.96875 -3.5625 C 2.5 -3.5625 2.90625 -3.351562 3.1875 -2.9375 L 3.1875 -3.5 L 3.703125 -3.5 L 3.703125 0 L 3.1875 0 Z M 2 -0.421875 C 2.375 -0.421875 2.671875 -0.550781 2.890625 -0.8125 C 3.109375 -1.0625 3.21875 -1.375 3.21875 -1.75 C 3.21875 -2.125 3.109375 -2.4375 2.890625 -2.6875 C 2.671875 -2.945312 2.375 -3.078125 2 -3.078125 C 1.625 -3.078125 1.320312 -2.945312 1.09375 -2.6875 C 0.875 -2.4375 0.765625 -2.125 0.765625 -1.75 C 0.765625 -1.375 0.875 -1.0625 1.09375 -0.8125 C 1.320312 -0.550781 1.625 -0.421875 2 -0.421875 Z M 2 -0.421875 "/></g></g></g><g fill="#000000" fill-opacity="1"><g transform="translate(63.195252, 57.870852)"><g/></g></g><g fill="#000000" fill-opacity="1"><g transform="translate(64.686266, 57.870852)"><g><path d="M 0.375 -2.328125 L 2.125 -2.328125 L 2.125 -1.8125 L 0.375 -1.8125 Z M 0.375 -2.328125 "/></g></g></g><g fill="#000000" fill-opacity="1"><g transform="translate(67.178293, 57.870852)"><g/></g></g><g fill="#000000" fill-opacity="1"><g transform="translate(68.669306, 57.870852)"><g><path d="M 2.625 -0.453125 C 2.957031 -0.453125 3.25 -0.535156 3.5 -0.703125 C 3.75 -0.867188 3.9375 -1.097656 4.0625 -1.390625 L 4.609375 -1.390625 C 4.453125 -0.953125 4.195312 -0.601562 3.84375 -0.34375 C 3.46875 -0.0703125 3.023438 0.0625 2.515625 0.0625 C 1.835938 0.0625 1.289062 -0.171875 0.875 -0.640625 C 0.46875 -1.078125 0.265625 -1.632812 0.265625 -2.3125 C 0.265625 -2.988281 0.46875 -3.550781 0.875 -4 C 1.289062 -4.457031 1.835938 -4.6875 2.515625 -4.6875 C 3.023438 -4.6875 3.46875 -4.550781 3.84375 -4.28125 C 4.195312 -4.03125 4.453125 -3.6875 4.609375 -3.25 L 4.0625 -3.25 C 3.9375 -3.53125 3.75 -3.753906 3.5 -3.921875 C 3.25 -4.085938 2.957031 -4.171875 2.625 -4.171875 C 2.300781 -4.171875 2.03125 -4.125 1.8125 -4.03125 C 1.59375 -3.9375 1.40625 -3.804688 1.25 -3.640625 C 0.945312 -3.296875 0.796875 -2.851562 0.796875 -2.3125 C 0.796875 -1.769531 0.945312 -1.332031 1.25 -1 C 1.570312 -0.632812 2.03125 -0.453125 2.625 -0.453125 Z M 2.625 -0.453125 "/></g></g></g><g fill="#000000" fill-opacity="1"><g transform="translate(73.499356, 57.870852)"><g><path d="M 1.09375 0 L 0.5625 0 L 0.5625 -4.640625 L 2.78125 -4.640625 C 3.257812 -4.640625 3.640625 -4.503906 3.921875 -4.234375 C 4.203125 -3.984375 4.34375 -3.632812 4.34375 -3.1875 C 4.34375 -2.601562 4.101562 -2.207031 3.625 -2 C 3.488281 -1.9375 3.359375 -1.894531 3.234375 -1.875 L 4.4375 0 L 3.828125 0 L 2.703125 -1.78125 L 1.09375 -1.78125 Z M 1.09375 -2.28125 L 2.6875 -2.28125 C 3.1875 -2.28125 3.53125 -2.429688 3.71875 -2.734375 C 3.789062 -2.847656 3.828125 -3 3.828125 -3.1875 C 3.828125 -3.476562 3.722656 -3.707031 3.515625 -3.875 C 3.316406 -4.050781 3.050781 -4.140625 2.71875 -4.140625 L 1.09375 -4.140625 Z M 1.09375 -2.28125 "/></g></g></g><g fill="#000000" fill-opacity="1"><g transform="translate(78.182406, 57.870852)"><g><path d="M 1.09375 0 L 0.5625 0 L 0.5625 -4.640625 L 2.65625 -4.640625 C 3.144531 -4.640625 3.535156 -4.503906 3.828125 -4.234375 C 4.109375 -3.960938 4.25 -3.597656 4.25 -3.140625 C 4.25 -2.679688 4.101562 -2.316406 3.8125 -2.046875 C 3.53125 -1.785156 3.144531 -1.65625 2.65625 -1.65625 L 1.09375 -1.65625 Z M 1.09375 -4.140625 L 1.09375 -2.140625 L 2.625 -2.140625 C 2.976562 -2.140625 3.25 -2.226562 3.4375 -2.40625 C 3.625 -2.582031 3.71875 -2.828125 3.71875 -3.140625 C 3.71875 -3.453125 3.625 -3.695312 3.4375 -3.875 C 3.25 -4.050781 2.976562 -4.140625 2.625 -4.140625 Z M 1.09375 -4.140625 "/></g></g></g><g fill="#000000" fill-opacity="1"><g transform="translate(82.578452, 57.870852)"><g/></g></g><g fill="#000000" fill-opacity="1"><g transform="translate(84.069466, 57.870852)"><g><path d="M 0.296875 -2.3125 C 0.296875 -3.894531 0.835938 -4.6875 1.921875 -4.6875 C 2.515625 -4.675781 2.945312 -4.429688 3.21875 -3.953125 C 3.4375 -3.554688 3.546875 -3.007812 3.546875 -2.3125 C 3.546875 -0.726562 3.003906 0.0625 1.921875 0.0625 C 0.835938 0.0625 0.296875 -0.726562 0.296875 -2.3125 Z M 1.921875 -0.453125 C 2.535156 -0.460938 2.890625 -0.867188 2.984375 -1.671875 C 3.015625 -1.890625 3.03125 -2.101562 3.03125 -2.3125 C 3.03125 -2.9375 2.941406 -3.398438 2.765625 -3.703125 C 2.585938 -4.015625 2.304688 -4.171875 1.921875 -4.171875 C 1.535156 -4.171875 1.253906 -4.015625 1.078125 -3.703125 C 0.910156 -3.398438 0.828125 -2.9375 0.828125 -2.3125 C 0.828125 -1.6875 0.910156 -1.21875 1.078125 -0.90625 C 1.253906 -0.601562 1.535156 -0.453125 1.921875 -0.453125 Z M 1.921875 -0.453125 "/></g></g></g><g fill="#000000" fill-opacity="1"><g transform="translate(87.919508, 57.870852)"><g><path d="M 2.890625 -3.5625 C 2.753906 -3.96875 2.476562 -4.171875 2.0625 -4.171875 C 1.644531 -4.171875 1.332031 -3.988281 1.125 -3.625 C 0.925781 -3.300781 0.828125 -2.859375 0.828125 -2.296875 C 0.941406 -2.492188 1.101562 -2.648438 1.3125 -2.765625 C 1.53125 -2.890625 1.757812 -2.953125 2 -2.953125 C 2.238281 -2.953125 2.453125 -2.914062 2.640625 -2.84375 C 2.835938 -2.769531 3.007812 -2.664062 3.15625 -2.53125 C 3.457031 -2.238281 3.609375 -1.878906 3.609375 -1.453125 C 3.609375 -1.023438 3.453125 -0.664062 3.140625 -0.375 C 2.835938 -0.0820312 2.460938 0.0625 2.015625 0.0625 C 1.453125 0.0625 1.023438 -0.140625 0.734375 -0.546875 C 0.441406 -0.960938 0.296875 -1.550781 0.296875 -2.3125 C 0.296875 -3.457031 0.625 -4.191406 1.28125 -4.515625 C 1.5 -4.628906 1.738281 -4.6875 2 -4.6875 C 2.257812 -4.6875 2.472656 -4.65625 2.640625 -4.59375 C 2.804688 -4.53125 2.941406 -4.441406 3.046875 -4.328125 C 3.273438 -4.128906 3.421875 -3.875 3.484375 -3.5625 Z M 2.015625 -2.453125 C 1.867188 -2.453125 1.726562 -2.425781 1.59375 -2.375 C 1.46875 -2.332031 1.359375 -2.269531 1.265625 -2.1875 C 1.046875 -2 0.9375 -1.765625 0.9375 -1.484375 C 0.9375 -1.179688 1.046875 -0.929688 1.265625 -0.734375 C 1.453125 -0.546875 1.703125 -0.453125 2.015625 -0.453125 C 2.316406 -0.453125 2.566406 -0.546875 2.765625 -0.734375 C 2.984375 -0.921875 3.09375 -1.160156 3.09375 -1.453125 C 3.09375 -1.734375 2.984375 -1.972656 2.765625 -2.171875 C 2.554688 -2.359375 2.304688 -2.453125 2.015625 -2.453125 Z M 2.015625 -2.453125 "/></g></g></g><g fill="#000000" fill-opacity="1"><g transform="translate(91.76955, 57.870852)"><g><path d="M 2.34375 -4.765625 L 0.734375 0.21875 L 0.25 0.21875 L 1.859375 -4.765625 Z M 2.34375 -4.765625 "/></g></g></g><g fill="#000000" fill-opacity="1"><g transform="translate(94.366573, 57.870852)"><g><path d="M 2.453125 -4.640625 L 2.453125 0 L 1.921875 0 L 1.921875 -4.125 L 0.9375 -4.125 L 0.9375 -4.640625 Z M 2.453125 -4.640625 "/></g></g></g><g fill="#000000" fill-opacity="1"><g transform="translate(98.216615, 57.870852)"><g><path d="M 3.5 -3.296875 C 3.5 -3.097656 3.4375 -2.90625 3.3125 -2.71875 C 3.195312 -2.53125 3.046875 -2.351562 2.859375 -2.1875 C 2.679688 -2.03125 2.484375 -1.878906 2.265625 -1.734375 C 2.054688 -1.585938 1.859375 -1.445312 1.671875 -1.3125 C 1.484375 -1.175781 1.328125 -1.039062 1.203125 -0.90625 C 1.078125 -0.769531 1.003906 -0.632812 0.984375 -0.5 L 3.484375 -0.5 L 3.484375 0 L 0.359375 0 L 0.359375 -0.28125 C 0.359375 -0.507812 0.421875 -0.71875 0.546875 -0.90625 C 0.679688 -1.101562 0.84375 -1.28125 1.03125 -1.4375 C 1.226562 -1.601562 1.4375 -1.757812 1.65625 -1.90625 C 1.882812 -2.0625 2.09375 -2.210938 2.28125 -2.359375 C 2.476562 -2.503906 2.640625 -2.65625 2.765625 -2.8125 C 2.898438 -2.96875 2.96875 -3.132812 2.96875 -3.3125 C 2.96875 -3.582031 2.875 -3.789062 2.6875 -3.9375 C 2.507812 -4.09375 2.257812 -4.171875 1.9375 -4.171875 C 1.625 -4.171875 1.367188 -4.101562 1.171875 -3.96875 C 0.972656 -3.832031 0.859375 -3.632812 0.828125 -3.375 L 0.296875 -3.375 C 0.335938 -3.769531 0.507812 -4.085938 0.8125 -4.328125 C 1.113281 -4.566406 1.476562 -4.6875 1.90625 -4.6875 C 2.394531 -4.6875 2.785156 -4.554688 3.078125 -4.296875 C 3.359375 -4.046875 3.5 -3.710938 3.5 -3.296875 Z M 3.5 -3.296875 "/></g></g></g><g fill="#000000" fill-opacity="1"><g transform="translate(102.066657, 57.870852)"><g><path d="M 0.296875 -2.3125 C 0.296875 -3.894531 0.835938 -4.6875 1.921875 -4.6875 C 2.515625 -4.675781 2.945312 -4.429688 3.21875 -3.953125 C 3.4375 -3.554688 3.546875 -3.007812 3.546875 -2.3125 C 3.546875 -0.726562 3.003906 0.0625 1.921875 0.0625 C 0.835938 0.0625 0.296875 -0.726562 0.296875 -2.3125 Z M 1.921875 -0.453125 C 2.535156 -0.460938 2.890625 -0.867188 2.984375 -1.671875 C 3.015625 -1.890625 3.03125 -2.101562 3.03125 -2.3125 C 3.03125 -2.9375 2.941406 -3.398438 2.765625 -3.703125 C 2.585938 -4.015625 2.304688 -4.171875 1.921875 -4.171875 C 1.535156 -4.171875 1.253906 -4.015625 1.078125 -3.703125 C 0.910156 -3.398438 0.828125 -2.9375 0.828125 -2.3125 C 0.828125 -1.6875 0.910156 -1.21875 1.078125 -0.90625 C 1.253906 -0.601562 1.535156 -0.453125 1.921875 -0.453125 Z M 1.921875 -0.453125 "/></g></g></g><g fill="#000000" fill-opacity="1"><g transform="translate(105.916699, 57.870852)"><g><path d="M 2.6875 -2.546875 C 2.96875 -2.441406 3.1875 -2.28125 3.34375 -2.0625 C 3.5 -1.84375 3.578125 -1.613281 3.578125 -1.375 C 3.578125 -1.132812 3.539062 -0.929688 3.46875 -0.765625 C 3.394531 -0.597656 3.289062 -0.453125 3.15625 -0.328125 C 2.851562 -0.0664062 2.441406 0.0625 1.921875 0.0625 C 1.398438 0.0625 0.992188 -0.0664062 0.703125 -0.328125 C 0.410156 -0.578125 0.265625 -0.910156 0.265625 -1.328125 C 0.265625 -1.597656 0.34375 -1.84375 0.5 -2.0625 C 0.65625 -2.28125 0.875 -2.441406 1.15625 -2.546875 C 0.976562 -2.609375 0.820312 -2.71875 0.6875 -2.875 C 0.53125 -3.050781 0.453125 -3.265625 0.453125 -3.515625 C 0.453125 -3.867188 0.578125 -4.148438 0.828125 -4.359375 C 1.078125 -4.578125 1.441406 -4.6875 1.921875 -4.6875 C 2.398438 -4.6875 2.765625 -4.578125 3.015625 -4.359375 C 3.273438 -4.148438 3.40625 -3.867188 3.40625 -3.515625 C 3.40625 -3.148438 3.25 -2.867188 2.9375 -2.671875 C 2.851562 -2.617188 2.769531 -2.578125 2.6875 -2.546875 Z M 1.921875 -2.765625 C 2.171875 -2.765625 2.382812 -2.820312 2.5625 -2.9375 C 2.769531 -3.070312 2.875 -3.253906 2.875 -3.484375 C 2.875 -3.710938 2.785156 -3.882812 2.609375 -4 C 2.429688 -4.125 2.203125 -4.1875 1.921875 -4.1875 C 1.640625 -4.1875 1.410156 -4.125 1.234375 -4 C 1.054688 -3.882812 0.96875 -3.710938 0.96875 -3.484375 C 0.96875 -3.253906 1.0625 -3.078125 1.25 -2.953125 C 1.445312 -2.828125 1.671875 -2.765625 1.921875 -2.765625 Z M 1.921875 -0.453125 C 2.273438 -0.453125 2.550781 -0.53125 2.75 -0.6875 C 2.957031 -0.84375 3.0625 -1.0625 3.0625 -1.34375 C 3.0625 -1.625 2.945312 -1.859375 2.71875 -2.046875 C 2.507812 -2.203125 2.242188 -2.28125 1.921875 -2.28125 C 1.597656 -2.28125 1.332031 -2.203125 1.125 -2.046875 C 0.90625 -1.859375 0.796875 -1.625 0.796875 -1.34375 C 0.796875 -1.0625 0.894531 -0.84375 1.09375 -0.6875 C 1.300781 -0.53125 1.578125 -0.453125 1.921875 -0.453125 Z M 1.921875 -0.453125 "/></g></g></g><g fill="#000000" fill-opacity="1"><g transform="translate(109.766741, 57.870852)"><g><path d="M 2.890625 -3.5625 C 2.753906 -3.96875 2.476562 -4.171875 2.0625 -4.171875 C 1.644531 -4.171875 1.332031 -3.988281 1.125 -3.625 C 0.925781 -3.300781 0.828125 -2.859375 0.828125 -2.296875 C 0.941406 -2.492188 1.101562 -2.648438 1.3125 -2.765625 C 1.53125 -2.890625 1.757812 -2.953125 2 -2.953125 C 2.238281 -2.953125 2.453125 -2.914062 2.640625 -2.84375 C 2.835938 -2.769531 3.007812 -2.664062 3.15625 -2.53125 C 3.457031 -2.238281 3.609375 -1.878906 3.609375 -1.453125 C 3.609375 -1.023438 3.453125 -0.664062 3.140625 -0.375 C 2.835938 -0.0820312 2.460938 0.0625 2.015625 0.0625 C 1.453125 0.0625 1.023438 -0.140625 0.734375 -0.546875 C 0.441406 -0.960938 0.296875 -1.550781 0.296875 -2.3125 C 0.296875 -3.457031 0.625 -4.191406 1.28125 -4.515625 C 1.5 -4.628906 1.738281 -4.6875 2 -4.6875 C 2.257812 -4.6875 2.472656 -4.65625 2.640625 -4.59375 C 2.804688 -4.53125 2.941406 -4.441406 3.046875 -4.328125 C 3.273438 -4.128906 3.421875 -3.875 3.484375 -3.5625 Z M 2.015625 -2.453125 C 1.867188 -2.453125 1.726562 -2.425781 1.59375 -2.375 C 1.46875 -2.332031 1.359375 -2.269531 1.265625 -2.1875 C 1.046875 -2 0.9375 -1.765625 0.9375 -1.484375 C 0.9375 -1.179688 1.046875 -0.929688 1.265625 -0.734375 C 1.453125 -0.546875 1.703125 -0.453125 2.015625 -0.453125 C 2.316406 -0.453125 2.566406 -0.546875 2.765625 -0.734375 C 2.984375 -0.921875 3.09375 -1.160156 3.09375 -1.453125 C 3.09375 -1.734375 2.984375 -1.972656 2.765625 -2.171875 C 2.554688 -2.359375 2.304688 -2.453125 2.015625 -2.453125 Z M 2.015625 -2.453125 "/></g></g></g><g fill="#000000" fill-opacity="1"><g transform="translate(113.616783, 57.870852)"><g><path d="M 0.296875 -2.3125 C 0.296875 -3.894531 0.835938 -4.6875 1.921875 -4.6875 C 2.515625 -4.675781 2.945312 -4.429688 3.21875 -3.953125 C 3.4375 -3.554688 3.546875 -3.007812 3.546875 -2.3125 C 3.546875 -0.726562 3.003906 0.0625 1.921875 0.0625 C 0.835938 0.0625 0.296875 -0.726562 0.296875 -2.3125 Z M 1.921875 -0.453125 C 2.535156 -0.460938 2.890625 -0.867188 2.984375 -1.671875 C 3.015625 -1.890625 3.03125 -2.101562 3.03125 -2.3125 C 3.03125 -2.9375 2.941406 -3.398438 2.765625 -3.703125 C 2.585938 -4.015625 2.304688 -4.171875 1.921875 -4.171875 C 1.535156 -4.171875 1.253906 -4.015625 1.078125 -3.703125 C 0.910156 -3.398438 0.828125 -2.9375 0.828125 -2.3125 C 0.828125 -1.6875 0.910156 -1.21875 1.078125 -0.90625 C 1.253906 -0.601562 1.535156 -0.453125 1.921875 -0.453125 Z M 1.921875 -0.453125 "/></g></g></g></svg>