<svg xmlns="http://www.w3.org/2000/svg" xmlns:xlink="http://www.w3.org/1999/xlink" width="200" zoomAndPan="magnify" viewBox="0 0 150 74.999997" height="100" preserveAspectRatio="xMidYMid meet" version="1.0"><defs><g/></defs><rect x="-15" width="180" fill="#ffffff" y="-7.5" height="89.999996" fill-opacity="1"/><rect x="-15" width="180" fill="#ffffff" y="-7.5" height="89.999996" fill-opacity="1"/><g fill="#000000" fill-opacity="1"><g transform="translate(0.000003, 38.266078)"><g><path d="M 43.328125 -18.09375 C 43.242188 -18.070312 43.148438 -18.066406 43.046875 -18.078125 C 42.953125 -18.097656 42.859375 -18.144531 42.765625 -18.21875 C 42.671875 -18.320312 42.628906 -18.414062 42.640625 -18.5 C 42.660156 -18.582031 42.695312 -18.660156 42.75 -18.734375 C 43.5625 -20.035156 44.265625 -21.40625 44.859375 -22.84375 C 45.242188 -23.726562 45.578125 -24.640625 45.859375 -25.578125 C 46.046875 -26.160156 46.0625 -26.785156 45.90625 -27.453125 C 45.757812 -28.160156 45.332031 -28.660156 44.625 -28.953125 C 44.082031 -29.160156 43.53125 -29.269531 42.96875 -29.28125 C 42.863281 -29.28125 42.765625 -29.28125 42.671875 -29.28125 C 41.472656 -29.238281 40.3125 -29.066406 39.1875 -28.765625 C 37.25 -28.296875 35.367188 -27.707031 33.546875 -27 C 31.734375 -26.300781 29.957031 -25.539062 28.21875 -24.71875 C 20.601562 -21.007812 13.789062 -16.328125 7.78125 -10.671875 C 6.257812 -9.316406 4.925781 -7.789062 3.78125 -6.09375 C 3.394531 -5.5 3.050781 -4.867188 2.75 -4.203125 C 2.570312 -3.835938 2.445312 -3.441406 2.375 -3.015625 C 2.125 -1.628906 2.722656 -0.597656 4.171875 0.078125 C 5.390625 0.640625 6.632812 0.957031 7.90625 1.03125 C 8.894531 1.113281 9.859375 1.15625 10.796875 1.15625 C 11.234375 1.15625 11.660156 1.140625 12.078125 1.109375 C 18.035156 1.046875 23.664062 0.269531 28.96875 -1.21875 C 29.050781 -1.25 29.132812 -1.273438 29.21875 -1.296875 C 29.570312 -1.410156 29.945312 -1.503906 30.34375 -1.578125 C 30.445312 -1.597656 30.613281 -1.613281 30.84375 -1.625 C 31.082031 -1.644531 31.304688 -1.628906 31.515625 -1.578125 C 31.734375 -1.535156 31.875 -1.441406 31.9375 -1.296875 C 31.945312 -1.203125 31.929688 -1.132812 31.890625 -1.09375 C 31.847656 -1.050781 31.785156 -1.023438 31.703125 -1.015625 C 31.367188 -0.929688 31.046875 -0.84375 30.734375 -0.75 C 29.773438 -0.5 28.816406 -0.253906 27.859375 -0.015625 C 22.492188 1.367188 16.921875 2.039062 11.140625 2 C 9.953125 2 8.757812 1.972656 7.5625 1.921875 C 6.21875 1.867188 4.875 1.585938 3.53125 1.078125 C 0.851562 0.046875 -0.0820312 -1.664062 0.71875 -4.0625 C 1.039062 -5.007812 1.503906 -5.882812 2.109375 -6.6875 C 2.929688 -7.882812 3.847656 -8.992188 4.859375 -10.015625 C 5.867188 -11.035156 6.914062 -12.023438 8 -12.984375 C 12.875 -17.273438 18.238281 -20.960938 24.09375 -24.046875 C 25.875 -24.984375 27.691406 -25.851562 29.546875 -26.65625 C 31.410156 -27.46875 33.328125 -28.1875 35.296875 -28.8125 C 36.953125 -29.332031 38.65625 -29.726562 40.40625 -30 C 41.113281 -30.101562 41.816406 -30.15625 42.515625 -30.15625 C 42.972656 -30.15625 43.4375 -30.140625 43.90625 -30.109375 C 44.445312 -30.054688 44.988281 -29.941406 45.53125 -29.765625 C 47 -29.242188 47.75 -28.273438 47.78125 -26.859375 C 47.78125 -26.222656 47.695312 -25.617188 47.53125 -25.046875 C 47.164062 -23.921875 46.722656 -22.835938 46.203125 -21.796875 C 45.691406 -20.753906 45.132812 -19.738281 44.53125 -18.75 C 44.363281 -18.414062 44.09375 -18.195312 43.71875 -18.09375 C 43.59375 -18.070312 43.484375 -18.070312 43.390625 -18.09375 Z M 43.328125 -18.09375 "/></g></g><g transform="translate(33.106886, 38.266078)"><g><path d="M 6.625 -4.453125 C 6.175781 -4.015625 5.648438 -3.640625 5.046875 -3.328125 C 4.453125 -3.015625 3.953125 -2.804688 3.546875 -2.703125 C 3.148438 -2.609375 2.738281 -2.554688 2.3125 -2.546875 C 1.632812 -2.515625 1.007812 -2.609375 0.4375 -2.828125 C -0.5 -3.203125 -0.828125 -3.925781 -0.546875 -5 C -0.273438 -5.914062 0.269531 -6.632812 1.09375 -7.15625 C 1.925781 -7.675781 2.785156 -7.925781 3.671875 -7.90625 C 3.671875 -7.90625 3.675781 -7.90625 3.6875 -7.90625 C 3.914062 -7.925781 4.128906 -7.910156 4.328125 -7.859375 C 4.671875 -7.742188 4.890625 -7.546875 4.984375 -7.265625 C 5.078125 -6.984375 5.015625 -6.671875 4.796875 -6.328125 C 4.304688 -5.578125 3.632812 -5.160156 2.78125 -5.078125 C 2.207031 -5.023438 1.660156 -5.050781 1.140625 -5.15625 C 1.035156 -5.175781 0.941406 -5.148438 0.859375 -5.078125 C 0.785156 -5.003906 0.742188 -4.921875 0.734375 -4.828125 C 0.578125 -4.160156 0.78125 -3.734375 1.34375 -3.546875 C 2.039062 -3.304688 2.765625 -3.304688 3.515625 -3.546875 C 4.390625 -3.816406 5.21875 -4.328125 6 -5.078125 C 6.78125 -5.828125 7.226562 -6.175781 7.34375 -6.125 C 7.46875 -6.070312 7.503906 -5.925781 7.453125 -5.6875 C 7.347656 -5.3125 7.070312 -4.898438 6.625 -4.453125 Z M 1.671875 -6.328125 C 1.628906 -6.273438 1.597656 -6.210938 1.578125 -6.140625 C 1.554688 -6.078125 1.582031 -6.019531 1.65625 -5.96875 C 1.925781 -5.8125 2.21875 -5.753906 2.53125 -5.796875 C 2.851562 -5.847656 3.125 -5.96875 3.34375 -6.15625 C 3.5625 -6.351562 3.65625 -6.597656 3.625 -6.890625 C 3.601562 -6.992188 3.546875 -7.054688 3.453125 -7.078125 C 3.367188 -7.109375 3.285156 -7.113281 3.203125 -7.09375 C 2.628906 -7 2.117188 -6.742188 1.671875 -6.328125 Z M 4.140625 -10.703125 C 4.179688 -10.785156 4.253906 -10.835938 4.359375 -10.859375 C 4.460938 -10.890625 4.566406 -10.90625 4.671875 -10.90625 C 4.703125 -10.882812 4.722656 -10.875 4.734375 -10.875 C 4.773438 -10.875 4.820312 -10.867188 4.875 -10.859375 C 5.125 -10.804688 5.257812 -10.726562 5.28125 -10.625 C 5.3125 -10.519531 5.285156 -10.40625 5.203125 -10.28125 C 5.117188 -10.164062 5.023438 -10.054688 4.921875 -9.953125 C 4.671875 -9.679688 4.425781 -9.378906 4.1875 -9.046875 C 3.976562 -8.753906 3.789062 -8.519531 3.625 -8.34375 C 3.46875 -8.175781 3.347656 -8.148438 3.265625 -8.265625 C 3.179688 -8.335938 3.132812 -8.421875 3.125 -8.515625 C 3.113281 -8.609375 3.125 -8.707031 3.15625 -8.8125 C 3.226562 -9.113281 3.335938 -9.398438 3.484375 -9.671875 C 3.640625 -9.941406 3.800781 -10.207031 3.96875 -10.46875 C 4.03125 -10.539062 4.085938 -10.617188 4.140625 -10.703125 Z M 4.140625 -10.703125 "/></g></g><g transform="translate(39.870033, 38.266078)"><g><path d="M 5.625 -5.546875 C 5.875 -5.796875 6.082031 -5.9375 6.25 -5.96875 C 6.425781 -6 6.539062 -5.972656 6.59375 -5.890625 C 6.644531 -5.804688 6.613281 -5.691406 6.5 -5.546875 C 5.8125 -4.722656 5.046875 -4.007812 4.203125 -3.40625 C 3.359375 -2.8125 2.488281 -2.46875 1.59375 -2.375 C 0.695312 -2.289062 0.160156 -2.78125 -0.015625 -3.84375 C -0.160156 -4.90625 0.476562 -7.066406 1.90625 -10.328125 C 3.332031 -13.585938 4.457031 -16.257812 5.28125 -18.34375 C 5.351562 -18.53125 5.457031 -18.691406 5.59375 -18.828125 C 5.78125 -19.015625 6.003906 -19.0625 6.265625 -18.96875 C 6.347656 -18.925781 6.429688 -18.863281 6.515625 -18.78125 C 6.597656 -18.695312 6.625 -18.546875 6.59375 -18.328125 C 2.9375 -9.628906 1.164062 -4.898438 1.28125 -4.140625 C 1.394531 -3.390625 1.882812 -3.203125 2.75 -3.578125 C 3.613281 -3.960938 4.28125 -4.351562 4.75 -4.75 C 5.21875 -5.15625 5.507812 -5.421875 5.625 -5.546875 Z M 5.625 -5.546875 "/></g></g><g transform="translate(45.668676, 38.266078)"><g><path d="M 4.609375 -4.890625 C 4.203125 -4.398438 3.710938 -3.945312 3.140625 -3.53125 C 2.578125 -3.125 1.9375 -2.847656 1.21875 -2.703125 C 0.507812 -2.566406 -0.0351562 -2.617188 -0.421875 -2.859375 C -0.816406 -3.109375 -0.894531 -3.660156 -0.65625 -4.515625 C -0.351562 -5.398438 0.0664062 -6.242188 0.609375 -7.046875 C 0.734375 -7.210938 0.914062 -7.332031 1.15625 -7.40625 C 1.320312 -7.4375 1.46875 -7.40625 1.59375 -7.3125 C 1.726562 -7.21875 1.78125 -7.097656 1.75 -6.953125 C 1.625 -6.671875 1.492188 -6.390625 1.359375 -6.109375 C 1.222656 -5.828125 1.128906 -5.644531 1.078125 -5.5625 C 0.804688 -5.070312 0.617188 -4.554688 0.515625 -4.015625 C 0.515625 -3.703125 0.925781 -3.679688 1.75 -3.953125 C 2.582031 -4.222656 3.390625 -4.71875 4.171875 -5.4375 C 4.953125 -6.164062 5.320312 -6.378906 5.28125 -6.078125 C 5.25 -5.785156 5.023438 -5.390625 4.609375 -4.890625 Z M 2.59375 -8.78125 C 2.550781 -8.75 2.46875 -8.710938 2.34375 -8.671875 C 2.226562 -8.628906 2.101562 -8.597656 1.96875 -8.578125 C 1.832031 -8.554688 1.722656 -8.578125 1.640625 -8.640625 C 1.566406 -8.703125 1.566406 -8.828125 1.640625 -9.015625 C 1.765625 -9.335938 1.894531 -9.617188 2.03125 -9.859375 C 2.164062 -10.109375 2.34375 -10.378906 2.5625 -10.671875 C 2.695312 -10.804688 2.84375 -10.878906 3 -10.890625 C 3.164062 -10.898438 3.300781 -10.859375 3.40625 -10.765625 C 3.519531 -10.671875 3.554688 -10.535156 3.515625 -10.359375 C 3.335938 -9.753906 3.03125 -9.226562 2.59375 -8.78125 Z M 2.59375 -8.78125 "/></g></g><g transform="translate(50.200682, 38.266078)"><g><path d="M 8.421875 -5.921875 C 8.609375 -5.816406 8.625 -5.5625 8.46875 -5.15625 C 8.25 -4.863281 8.007812 -4.585938 7.75 -4.328125 C 7.488281 -4.078125 7.207031 -3.851562 6.90625 -3.65625 C 6.882812 -3.65625 6.875 -3.644531 6.875 -3.625 C 6.675781 -3.488281 6.460938 -3.367188 6.234375 -3.265625 C 4.390625 -2.597656 3.445312 -2.988281 3.40625 -4.4375 C 2.65625 -3.789062 2.148438 -3.390625 1.890625 -3.234375 C 1.273438 -2.878906 0.613281 -2.71875 -0.09375 -2.75 C -0.625 -2.78125 -0.984375 -2.941406 -1.171875 -3.234375 C -1.359375 -3.523438 -1.335938 -3.921875 -1.109375 -4.421875 C -0.773438 -5.203125 -0.289062 -5.894531 0.34375 -6.5 C 1.070312 -7.1875 1.882812 -7.734375 2.78125 -8.140625 C 3.269531 -8.378906 3.773438 -8.472656 4.296875 -8.421875 C 4.828125 -8.390625 5.144531 -8.09375 5.25 -7.53125 C 5.300781 -7.363281 5.257812 -7.210938 5.125 -7.078125 C 4.957031 -6.921875 4.757812 -6.882812 4.53125 -6.96875 C 4.519531 -6.96875 4.5 -6.972656 4.46875 -6.984375 C 4.4375 -6.992188 4.414062 -7.003906 4.40625 -7.015625 C 4.175781 -7.328125 3.945312 -7.457031 3.71875 -7.40625 C 3.488281 -7.351562 3.25 -7.25 3 -7.09375 C 1.800781 -6.394531 0.914062 -5.425781 0.34375 -4.1875 C 0.3125 -4.132812 0.289062 -4.070312 0.28125 -4 C 0.269531 -3.9375 0.289062 -3.882812 0.34375 -3.84375 C 0.476562 -3.800781 0.628906 -3.8125 0.796875 -3.875 C 0.972656 -3.9375 1.144531 -4.03125 1.3125 -4.15625 C 1.476562 -4.289062 1.625 -4.398438 1.75 -4.484375 C 1.757812 -4.503906 1.765625 -4.515625 1.765625 -4.515625 C 2.328125 -4.992188 2.878906 -5.476562 3.421875 -5.96875 C 3.660156 -6.226562 3.960938 -6.375 4.328125 -6.40625 C 4.835938 -6.40625 5.050781 -6.175781 4.96875 -5.71875 C 4.914062 -5.550781 4.863281 -5.378906 4.8125 -5.203125 C 4.613281 -4.472656 4.601562 -4.039062 4.78125 -3.90625 C 4.96875 -3.78125 5.253906 -3.78125 5.640625 -3.90625 C 6.023438 -4.039062 6.40625 -4.285156 6.78125 -4.640625 C 7.164062 -5.003906 7.488281 -5.332031 7.75 -5.625 C 8.019531 -5.925781 8.242188 -6.023438 8.421875 -5.921875 Z M 8.421875 -5.921875 "/></g></g><g transform="translate(57.905092, 38.266078)"><g/></g><g transform="translate(66.69021, 38.266078)"><g><path d="M 4.875 -4.671875 C 3.09375 -1.035156 2.148438 0.878906 2.046875 1.078125 C 1.929688 1.304688 1.8125 1.539062 1.6875 1.78125 C 1.65625 1.84375 1.628906 1.90625 1.609375 1.96875 C 1.367188 2.4375 1.140625 2.90625 0.921875 3.375 C -0.492188 6.226562 -1.835938 9.09375 -3.109375 11.96875 C -3.109375 12.007812 -3.125 12.046875 -3.15625 12.078125 C -3.164062 12.140625 -3.191406 12.207031 -3.234375 12.28125 C -3.410156 12.519531 -3.625 12.617188 -3.875 12.578125 C -3.945312 12.597656 -4.019531 12.597656 -4.09375 12.578125 C -4.226562 12.546875 -4.332031 12.488281 -4.40625 12.40625 C -4.476562 12.320312 -4.492188 12.203125 -4.453125 12.046875 C -4.265625 11.484375 -4.039062 10.921875 -3.78125 10.359375 C -2.894531 8.472656 -2.007812 6.570312 -1.125 4.65625 C -0.601562 3.519531 -0.0703125 2.378906 0.46875 1.234375 C 0.695312 0.773438 1.410156 -0.671875 2.609375 -3.109375 C 3.816406 -5.554688 4.523438 -6.992188 4.734375 -7.421875 C 6.316406 -10.660156 7.984375 -13.867188 9.734375 -17.046875 C 10.859375 -19.117188 11.96875 -21.207031 13.0625 -23.3125 C 13.1875 -23.5625 13.34375 -23.789062 13.53125 -24 C 13.675781 -24.15625 13.859375 -24.242188 14.078125 -24.265625 C 14.148438 -24.304688 14.222656 -24.316406 14.296875 -24.296875 C 14.460938 -24.316406 14.59375 -24.269531 14.6875 -24.15625 C 14.78125 -24.050781 14.800781 -23.921875 14.75 -23.765625 C 14.695312 -23.648438 14.644531 -23.53125 14.59375 -23.40625 C 14.289062 -22.675781 13.953125 -21.953125 13.578125 -21.234375 C 12.304688 -18.796875 11.023438 -16.363281 9.734375 -13.9375 C 9.066406 -12.695312 8.414062 -11.457031 7.78125 -10.21875 C 7.445312 -9.613281 7.128906 -9.007812 6.828125 -8.40625 C 6.703125 -8.175781 6.582031 -7.945312 6.46875 -7.71875 C 6.445312 -7.675781 6.425781 -7.640625 6.40625 -7.609375 C 6.363281 -7.523438 6.328125 -7.441406 6.296875 -7.359375 C 6.273438 -7.273438 6.28125 -7.195312 6.3125 -7.125 C 6.363281 -7.050781 6.429688 -7.007812 6.515625 -7 C 6.597656 -7.007812 6.6875 -7.023438 6.78125 -7.046875 C 6.8125 -7.066406 6.84375 -7.082031 6.875 -7.09375 C 7.8125 -7.363281 8.75 -7.632812 9.6875 -7.90625 C 12.3125 -8.675781 14.921875 -9.488281 17.515625 -10.34375 C 20.117188 -11.195312 22.703125 -12.140625 25.265625 -13.171875 C 26.859375 -13.828125 28.4375 -14.515625 30 -15.234375 C 31.5625 -15.960938 33.09375 -16.769531 34.59375 -17.65625 C 35.84375 -18.382812 37.023438 -19.242188 38.140625 -20.234375 C 38.679688 -20.722656 39.160156 -21.28125 39.578125 -21.90625 C 40.398438 -23.144531 40.453125 -24.300781 39.734375 -25.375 C 39.285156 -26.019531 38.722656 -26.546875 38.046875 -26.953125 C 37.023438 -27.617188 35.914062 -28.140625 34.71875 -28.515625 C 31.800781 -29.398438 28.765625 -29.960938 25.609375 -30.203125 C 23.753906 -30.335938 21.878906 -30.414062 19.984375 -30.4375 C 18.960938 -30.4375 17.929688 -30.410156 16.890625 -30.359375 C 15.347656 -30.285156 13.796875 -30.144531 12.234375 -29.9375 C 10.671875 -29.738281 9.113281 -29.390625 7.5625 -28.890625 C 6.582031 -28.578125 5.625 -28.171875 4.6875 -27.671875 C 3.96875 -27.335938 3.328125 -26.882812 2.765625 -26.3125 C 2.609375 -26.144531 2.425781 -26.019531 2.21875 -25.9375 C 2.113281 -25.882812 2.019531 -25.867188 1.9375 -25.890625 C 1.769531 -25.867188 1.628906 -25.921875 1.515625 -26.046875 C 1.359375 -26.210938 1.359375 -26.394531 1.515625 -26.59375 C 1.753906 -26.914062 2.03125 -27.195312 2.34375 -27.4375 C 2.65625 -27.6875 2.984375 -27.898438 3.328125 -28.078125 C 4.890625 -28.984375 6.515625 -29.648438 8.203125 -30.078125 C 10.265625 -30.609375 12.328125 -30.929688 14.390625 -31.046875 C 16.398438 -31.203125 18.410156 -31.285156 20.421875 -31.296875 L 20.46875 -31.296875 C 20.851562 -31.296875 21.238281 -31.296875 21.625 -31.296875 C 23.550781 -31.265625 25.457031 -31.164062 27.34375 -31 C 29.238281 -30.84375 31.109375 -30.5625 32.953125 -30.15625 C 33.898438 -29.9375 34.832031 -29.675781 35.75 -29.375 C 36.675781 -29.082031 37.566406 -28.710938 38.421875 -28.265625 C 39.359375 -27.804688 40.175781 -27.207031 40.875 -26.46875 C 42.40625 -24.789062 42.328125 -22.925781 40.640625 -20.875 C 39.859375 -19.96875 38.976562 -19.175781 38 -18.5 C 36.78125 -17.613281 35.523438 -16.816406 34.234375 -16.109375 C 32.941406 -15.398438 31.617188 -14.75 30.265625 -14.15625 C 27.484375 -12.875 24.671875 -11.722656 21.828125 -10.703125 C 18.984375 -9.691406 16.125 -8.757812 13.25 -7.90625 C 10.988281 -7.226562 8.738281 -6.578125 6.5 -5.953125 C 6.132812 -5.867188 5.816406 -5.726562 5.546875 -5.53125 C 5.273438 -5.332031 5.050781 -5.046875 4.875 -4.671875 Z M 44.0625 4.96875 C 44.800781 5.613281 40.378906 4.507812 30.796875 1.65625 C 24.242188 -0.34375 17.628906 -2.234375 10.953125 -4.015625 C 9.085938 -4.484375 7.21875 -4.9375 5.34375 -5.375 C 4.59375 -5.570312 3.84375 -5.753906 3.09375 -5.921875 C 2.832031 -5.984375 2.578125 -6.035156 2.328125 -6.078125 C 2.273438 -6.078125 2.222656 -6.082031 2.171875 -6.09375 C 2.003906 -6.09375 2.03125 -6.316406 2.25 -6.765625 C 2.46875 -7.222656 2.738281 -7.367188 3.0625 -7.203125 C 3.488281 -6.972656 4.492188 -6.640625 6.078125 -6.203125 C 7.660156 -5.765625 9.707031 -5.203125 12.21875 -4.515625 C 16.96875 -3.273438 22.644531 -1.6875 29.25 0.25 C 38.382812 2.757812 43.320312 4.332031 44.0625 4.96875 Z M 44.0625 4.96875 "/></g></g><g transform="translate(92.383197, 38.266078)"><g><path d="M 1.84375 -2.75 L 1.8125 -2.75 C 0.6875 -2.769531 -0.0507812 -3.019531 -0.40625 -3.5 C -0.757812 -3.988281 -0.742188 -4.632812 -0.359375 -5.4375 C -0.0351562 -6.050781 0.375 -6.585938 0.875 -7.046875 C 1.039062 -7.203125 1.210938 -7.320312 1.390625 -7.40625 C 1.566406 -7.5 1.769531 -7.546875 2 -7.546875 C 2.132812 -7.578125 2.285156 -7.554688 2.453125 -7.484375 C 2.503906 -7.460938 2.554688 -7.441406 2.609375 -7.421875 C 2.742188 -7.441406 2.875 -7.484375 3 -7.546875 C 3.03125 -7.578125 3.070312 -7.597656 3.125 -7.609375 C 3.382812 -7.710938 3.65625 -7.753906 3.9375 -7.734375 C 4.050781 -7.734375 4.171875 -7.734375 4.296875 -7.734375 C 4.753906 -7.671875 5.097656 -7.476562 5.328125 -7.15625 C 5.566406 -6.84375 5.648438 -6.460938 5.578125 -6.015625 C 5.535156 -5.742188 5.453125 -5.488281 5.328125 -5.25 C 4.429688 -3.65625 3.296875 -2.820312 1.921875 -2.75 Z M 3.6875 -6.90625 C 3.070312 -6.9375 2.523438 -6.765625 2.046875 -6.390625 C 1.578125 -6.015625 1.222656 -5.582031 0.984375 -5.09375 C 0.753906 -4.601562 0.691406 -4.203125 0.796875 -3.890625 C 0.898438 -3.578125 1.222656 -3.488281 1.765625 -3.625 C 2.378906 -3.8125 2.921875 -4.160156 3.390625 -4.671875 C 3.859375 -5.179688 4.144531 -5.664062 4.25 -6.125 C 4.351562 -6.59375 4.164062 -6.851562 3.6875 -6.90625 Z M 3.6875 -6.90625 "/></g></g><g transform="translate(98.553697, 38.266078)"><g><path d="M 10.3125 -6.109375 C 10.476562 -6.066406 10.5625 -6.007812 10.5625 -5.9375 C 10.570312 -5.863281 10.578125 -5.828125 10.578125 -5.828125 C 10.398438 -5.492188 10.191406 -5.191406 9.953125 -4.921875 C 9.398438 -4.316406 8.757812 -3.832031 8.03125 -3.46875 C 7.675781 -3.257812 7.273438 -3.148438 6.828125 -3.140625 C 5.785156 -3.117188 5.304688 -3.617188 5.390625 -4.640625 C 5.429688 -4.859375 5.484375 -5.070312 5.546875 -5.28125 C 5.578125 -5.382812 5.601562 -5.488281 5.625 -5.59375 C 5.726562 -5.957031 5.753906 -6.160156 5.703125 -6.203125 C 5.660156 -6.253906 5.539062 -6.148438 5.34375 -5.890625 C 5.289062 -5.847656 5.238281 -5.796875 5.1875 -5.734375 C 4.882812 -5.367188 4.566406 -5.003906 4.234375 -4.640625 C 3.640625 -3.960938 2.960938 -3.390625 2.203125 -2.921875 C 1.742188 -2.648438 1.257812 -2.507812 0.75 -2.5 C -0.09375 -2.457031 -0.5625 -2.84375 -0.65625 -3.65625 C -0.695312 -3.976562 -0.679688 -4.296875 -0.609375 -4.609375 C -0.273438 -5.929688 0.398438 -6.9375 1.421875 -7.625 C 2.453125 -8.3125 3.625 -8.554688 4.9375 -8.359375 C 5.3125 -8.242188 5.582031 -8.34375 5.75 -8.65625 C 5.820312 -8.769531 5.890625 -8.890625 5.953125 -9.015625 C 6.316406 -9.628906 6.664062 -10.242188 7 -10.859375 C 7.644531 -12.035156 8.296875 -13.21875 8.953125 -14.40625 C 9.472656 -15.34375 10 -16.289062 10.53125 -17.25 C 10.6875 -17.539062 10.851562 -17.820312 11.03125 -18.09375 C 11.125 -18.226562 11.234375 -18.304688 11.359375 -18.328125 C 11.484375 -18.359375 11.617188 -18.375 11.765625 -18.375 C 11.796875 -18.375 11.828125 -18.375 11.859375 -18.375 C 12.015625 -18.375 12.140625 -18.332031 12.234375 -18.25 C 12.328125 -18.175781 12.347656 -18.070312 12.296875 -17.9375 C 12.191406 -17.613281 12.070312 -17.304688 11.9375 -17.015625 C 11.21875 -15.585938 10.539062 -14.144531 9.90625 -12.6875 C 9.28125 -11.226562 8.660156 -9.753906 8.046875 -8.265625 C 7.847656 -7.753906 7.644531 -7.242188 7.4375 -6.734375 C 7.175781 -6.140625 6.960938 -5.53125 6.796875 -4.90625 C 6.753906 -4.757812 6.734375 -4.617188 6.734375 -4.484375 C 6.734375 -4.347656 6.796875 -4.234375 6.921875 -4.140625 C 7.003906 -4.085938 7.09375 -4.078125 7.1875 -4.109375 C 7.28125 -4.140625 7.382812 -4.179688 7.5 -4.234375 C 7.507812 -4.253906 7.53125 -4.269531 7.5625 -4.28125 C 8.300781 -4.707031 8.976562 -5.222656 9.59375 -5.828125 C 9.6875 -5.921875 9.789062 -6.003906 9.90625 -6.078125 C 10.019531 -6.148438 10.15625 -6.160156 10.3125 -6.109375 Z M 4.578125 -6.859375 C 4.660156 -7.003906 4.679688 -7.140625 4.640625 -7.265625 C 4.609375 -7.390625 4.523438 -7.484375 4.390625 -7.546875 C 4.109375 -7.703125 3.800781 -7.722656 3.46875 -7.609375 C 2.675781 -7.367188 2.007812 -6.910156 1.46875 -6.234375 C 0.925781 -5.566406 0.632812 -4.828125 0.59375 -4.015625 C 0.601562 -3.972656 0.609375 -3.941406 0.609375 -3.921875 C 0.609375 -3.859375 0.609375 -3.789062 0.609375 -3.71875 C 0.679688 -3.34375 0.910156 -3.269531 1.296875 -3.5 C 1.691406 -3.726562 2.128906 -4.097656 2.609375 -4.609375 C 3.097656 -5.117188 3.535156 -5.601562 3.921875 -6.0625 C 4.304688 -6.53125 4.523438 -6.796875 4.578125 -6.859375 Z M 4.578125 -6.859375 "/></g></g><g transform="translate(108.268458, 38.266078)"><g><path d="M 5.578125 -7.125 C 5.503906 -6.59375 5.25 -6.242188 4.8125 -6.078125 C 4.382812 -5.921875 4.242188 -6.132812 4.390625 -6.71875 C 4.546875 -7.3125 4.28125 -7.460938 3.59375 -7.171875 C 2.914062 -6.878906 2.359375 -6.515625 1.921875 -6.078125 C 1.234375 -5.378906 0.628906 -4.628906 0.109375 -3.828125 C 0.046875 -3.753906 0.00390625 -3.695312 -0.015625 -3.65625 C -0.171875 -3.425781 -0.328125 -3.210938 -0.484375 -3.015625 C -0.585938 -2.867188 -0.707031 -2.78125 -0.84375 -2.75 C -0.976562 -2.71875 -1.113281 -2.710938 -1.25 -2.734375 C -1.382812 -2.742188 -1.484375 -2.789062 -1.546875 -2.875 C -1.617188 -2.96875 -1.628906 -3.070312 -1.578125 -3.1875 C -1.492188 -3.394531 -1.394531 -3.609375 -1.28125 -3.828125 C -0.582031 -5.117188 0.125 -6.414062 0.84375 -7.71875 C 0.863281 -7.726562 0.875 -7.742188 0.875 -7.765625 C 0.96875 -7.960938 1.085938 -8.144531 1.234375 -8.3125 C 1.390625 -8.488281 1.566406 -8.5625 1.765625 -8.53125 C 1.960938 -8.5 2.097656 -8.378906 2.171875 -8.171875 C 2.253906 -7.898438 2.328125 -7.742188 2.390625 -7.703125 C 2.453125 -7.671875 2.59375 -7.695312 2.8125 -7.78125 C 3.28125 -7.957031 3.734375 -8.078125 4.171875 -8.140625 C 4.609375 -8.210938 4.96875 -8.195312 5.25 -8.09375 C 5.539062 -7.988281 5.648438 -7.664062 5.578125 -7.125 Z M 5.578125 -7.125 "/></g></g><g transform="translate(114.078722, 38.266078)"><g><path d="M 4.609375 -4.890625 C 4.203125 -4.398438 3.710938 -3.945312 3.140625 -3.53125 C 2.578125 -3.125 1.9375 -2.847656 1.21875 -2.703125 C 0.507812 -2.566406 -0.0351562 -2.617188 -0.421875 -2.859375 C -0.816406 -3.109375 -0.894531 -3.660156 -0.65625 -4.515625 C -0.351562 -5.398438 0.0664062 -6.242188 0.609375 -7.046875 C 0.734375 -7.210938 0.914062 -7.332031 1.15625 -7.40625 C 1.320312 -7.4375 1.46875 -7.40625 1.59375 -7.3125 C 1.726562 -7.21875 1.78125 -7.097656 1.75 -6.953125 C 1.625 -6.671875 1.492188 -6.390625 1.359375 -6.109375 C 1.222656 -5.828125 1.128906 -5.644531 1.078125 -5.5625 C 0.804688 -5.070312 0.617188 -4.554688 0.515625 -4.015625 C 0.515625 -3.703125 0.925781 -3.679688 1.75 -3.953125 C 2.582031 -4.222656 3.390625 -4.71875 4.171875 -5.4375 C 4.953125 -6.164062 5.320312 -6.378906 5.28125 -6.078125 C 5.25 -5.785156 5.023438 -5.390625 4.609375 -4.890625 Z M 2.59375 -8.78125 C 2.550781 -8.75 2.46875 -8.710938 2.34375 -8.671875 C 2.226562 -8.628906 2.101562 -8.597656 1.96875 -8.578125 C 1.832031 -8.554688 1.722656 -8.578125 1.640625 -8.640625 C 1.566406 -8.703125 1.566406 -8.828125 1.640625 -9.015625 C 1.765625 -9.335938 1.894531 -9.617188 2.03125 -9.859375 C 2.164062 -10.109375 2.34375 -10.378906 2.5625 -10.671875 C 2.695312 -10.804688 2.84375 -10.878906 3 -10.890625 C 3.164062 -10.898438 3.300781 -10.859375 3.40625 -10.765625 C 3.519531 -10.671875 3.554688 -10.535156 3.515625 -10.359375 C 3.335938 -9.753906 3.03125 -9.226562 2.59375 -8.78125 Z M 2.59375 -8.78125 "/></g></g><g transform="translate(118.610728, 38.266078)"><g><path d="M 10.265625 -6.234375 C 10.328125 -6.242188 10.394531 -6.238281 10.46875 -6.21875 C 10.539062 -6.207031 10.597656 -6.175781 10.640625 -6.125 C 10.691406 -6.039062 10.691406 -5.953125 10.640625 -5.859375 C 10.585938 -5.773438 10.507812 -5.710938 10.40625 -5.671875 C 9.707031 -5.328125 9.007812 -4.972656 8.3125 -4.609375 C 7.476562 -4.179688 6.644531 -3.753906 5.8125 -3.328125 C 5.6875 -3.285156 5.566406 -3.226562 5.453125 -3.15625 C 5.265625 -3.0625 5.078125 -2.96875 4.890625 -2.875 C 4.460938 -2.664062 4.179688 -2.34375 4.046875 -1.90625 C 3.671875 -0.851562 3.28125 0.191406 2.875 1.234375 C 2.34375 2.617188 1.679688 3.9375 0.890625 5.1875 C 0.453125 5.914062 -0.078125 6.554688 -0.703125 7.109375 C -1.453125 7.816406 -2.3125 8.265625 -3.28125 8.453125 C -4.882812 8.773438 -6.429688 8.671875 -7.921875 8.140625 C -8.535156 7.921875 -9.0625 7.570312 -9.5 7.09375 C -10.101562 6.445312 -10.132812 5.753906 -9.59375 5.015625 C -9.34375 4.710938 -9.070312 4.421875 -8.78125 4.140625 C -8.125 3.546875 -7.410156 3.015625 -6.640625 2.546875 C -3.890625 0.785156 -1.066406 -0.832031 1.828125 -2.3125 C 1.835938 -2.3125 1.84375 -2.3125 1.84375 -2.3125 C 2.144531 -2.46875 2.445312 -2.628906 2.75 -2.796875 C 2.789062 -2.835938 2.851562 -2.921875 2.9375 -3.046875 C 3.019531 -3.171875 3.082031 -3.296875 3.125 -3.421875 C 3.175781 -3.554688 3.164062 -3.648438 3.09375 -3.703125 C 3.03125 -3.765625 2.867188 -3.738281 2.609375 -3.625 C 2.515625 -3.582031 2.421875 -3.539062 2.328125 -3.5 C 2.109375 -3.382812 1.882812 -3.285156 1.65625 -3.203125 C 0.332031 -2.890625 -0.328125 -3.398438 -0.328125 -4.734375 C -0.296875 -5.546875 -0.0546875 -6.273438 0.390625 -6.921875 C 0.847656 -7.566406 1.429688 -8.070312 2.140625 -8.4375 C 2.847656 -8.8125 3.609375 -8.953125 4.421875 -8.859375 C 4.515625 -8.859375 4.601562 -8.847656 4.6875 -8.828125 C 4.90625 -8.796875 5.128906 -8.78125 5.359375 -8.78125 C 5.585938 -8.78125 5.820312 -8.832031 6.0625 -8.9375 C 6.320312 -9.039062 6.515625 -9.007812 6.640625 -8.84375 C 6.765625 -8.6875 6.785156 -8.484375 6.703125 -8.234375 C 6.484375 -7.742188 6.265625 -7.253906 6.046875 -6.765625 C 5.890625 -6.460938 5.738281 -6.148438 5.59375 -5.828125 C 5.445312 -5.484375 5.296875 -5.132812 5.140625 -4.78125 C 4.929688 -4.3125 4.898438 -4.066406 5.046875 -4.046875 C 5.203125 -4.023438 5.457031 -4.101562 5.8125 -4.28125 C 5.851562 -4.300781 5.898438 -4.316406 5.953125 -4.328125 C 6.609375 -4.640625 7.265625 -4.945312 7.921875 -5.25 C 8.390625 -5.457031 8.851562 -5.671875 9.3125 -5.890625 C 9.613281 -6.023438 9.929688 -6.140625 10.265625 -6.234375 Z M 2 0.015625 C 2.238281 -0.671875 2.335938 -1.117188 2.296875 -1.328125 C 2.265625 -1.546875 2.117188 -1.601562 1.859375 -1.5 C 1.597656 -1.394531 1.253906 -1.207031 0.828125 -0.9375 C 0.554688 -0.769531 0.257812 -0.601562 -0.0625 -0.4375 C -2.03125 0.625 -3.941406 1.757812 -5.796875 2.96875 C -6.617188 3.445312 -7.351562 4.03125 -8 4.71875 C -8.675781 5.445312 -8.648438 6.09375 -7.921875 6.65625 C -7.492188 7 -7.019531 7.238281 -6.5 7.375 C -5.976562 7.507812 -5.40625 7.578125 -4.78125 7.578125 C -4.039062 7.628906 -3.359375 7.492188 -2.734375 7.171875 C -2.109375 6.847656 -1.523438 6.359375 -0.984375 5.703125 C -0.671875 5.273438 -0.363281 4.832031 -0.0625 4.375 C 0.78125 2.976562 1.46875 1.523438 2 0.015625 Z M 1.234375 -4.109375 C 1.429688 -4.015625 1.722656 -4.082031 2.109375 -4.3125 C 2.492188 -4.550781 2.882812 -4.875 3.28125 -5.28125 C 3.6875 -5.6875 4.003906 -6.101562 4.234375 -6.53125 C 4.472656 -6.957031 4.535156 -7.316406 4.421875 -7.609375 C 4.390625 -7.691406 4.34375 -7.769531 4.28125 -7.84375 C 4.15625 -7.988281 4.015625 -8.054688 3.859375 -8.046875 C 3.710938 -8.046875 3.550781 -8.019531 3.375 -7.96875 C 2.8125 -7.75 2.3125 -7.363281 1.875 -6.8125 C 1.445312 -6.269531 1.160156 -5.726562 1.015625 -5.1875 C 0.867188 -4.65625 0.941406 -4.296875 1.234375 -4.109375 Z M 1.234375 -4.109375 "/></g></g><g transform="translate(128.534658, 38.266078)"><g><path d="M 0.296875 -2.0625 C -0.441406 -2.0625 -0.8125 -2.441406 -0.8125 -3.203125 C -0.8125 -4.140625 -0.203125 -5.796875 1.015625 -8.171875 C 1.054688 -8.265625 1.140625 -8.3125 1.265625 -8.3125 C 1.753906 -8.3125 2 -8.117188 2 -7.734375 C 2 -7.597656 1.957031 -7.429688 1.875 -7.234375 C 1.84375 -7.171875 1.4375 -6.144531 0.65625 -4.15625 C 0.53125 -3.832031 0.46875 -3.59375 0.46875 -3.4375 C 0.46875 -3.269531 0.546875 -3.1875 0.703125 -3.1875 C 1.265625 -3.1875 2.742188 -4.59375 5.140625 -7.40625 C 5.453125 -7.78125 5.757812 -7.96875 6.0625 -7.96875 C 6.507812 -7.96875 6.734375 -7.804688 6.734375 -7.484375 C 6.734375 -7.359375 6.597656 -6.890625 6.328125 -6.078125 C 5.953125 -4.972656 5.765625 -4.332031 5.765625 -4.15625 C 5.765625 -3.90625 5.847656 -3.78125 6.015625 -3.78125 C 6.441406 -3.78125 7.6875 -4.535156 9.75 -6.046875 C 9.863281 -6.148438 9.960938 -6.203125 10.046875 -6.203125 C 10.242188 -6.203125 10.34375 -6.039062 10.34375 -5.71875 C 10.34375 -5.632812 10.316406 -5.5625 10.265625 -5.5 C 9.171875 -4.570312 8.238281 -3.863281 7.46875 -3.375 C 6.769531 -2.925781 6.148438 -2.703125 5.609375 -2.703125 L 5.453125 -2.703125 C 4.648438 -2.867188 4.25 -3.488281 4.25 -4.5625 C 3.394531 -3.8125 2.6875 -3.207031 2.125 -2.75 C 1.570312 -2.289062 0.960938 -2.0625 0.296875 -2.0625 Z M 0.296875 -2.0625 "/></g></g><g transform="translate(138.086732, 38.266078)"><g><path d="M 6.625 -4.453125 C 6.175781 -4.015625 5.648438 -3.640625 5.046875 -3.328125 C 4.453125 -3.015625 3.953125 -2.804688 3.546875 -2.703125 C 3.148438 -2.609375 2.738281 -2.554688 2.3125 -2.546875 C 1.632812 -2.515625 1.007812 -2.609375 0.4375 -2.828125 C -0.5 -3.203125 -0.828125 -3.925781 -0.546875 -5 C -0.273438 -5.914062 0.269531 -6.632812 1.09375 -7.15625 C 1.925781 -7.675781 2.785156 -7.925781 3.671875 -7.90625 C 3.671875 -7.90625 3.675781 -7.90625 3.6875 -7.90625 C 3.914062 -7.925781 4.128906 -7.910156 4.328125 -7.859375 C 4.671875 -7.742188 4.890625 -7.546875 4.984375 -7.265625 C 5.078125 -6.984375 5.015625 -6.671875 4.796875 -6.328125 C 4.304688 -5.578125 3.632812 -5.160156 2.78125 -5.078125 C 2.207031 -5.023438 1.660156 -5.050781 1.140625 -5.15625 C 1.035156 -5.175781 0.941406 -5.148438 0.859375 -5.078125 C 0.785156 -5.003906 0.742188 -4.921875 0.734375 -4.828125 C 0.578125 -4.160156 0.78125 -3.734375 1.34375 -3.546875 C 2.039062 -3.304688 2.765625 -3.304688 3.515625 -3.546875 C 4.390625 -3.816406 5.21875 -4.328125 6 -5.078125 C 6.78125 -5.828125 7.226562 -6.175781 7.34375 -6.125 C 7.46875 -6.070312 7.503906 -5.925781 7.453125 -5.6875 C 7.347656 -5.3125 7.070312 -4.898438 6.625 -4.453125 Z M 1.671875 -6.328125 C 1.628906 -6.273438 1.597656 -6.210938 1.578125 -6.140625 C 1.554688 -6.078125 1.582031 -6.019531 1.65625 -5.96875 C 1.925781 -5.8125 2.21875 -5.753906 2.53125 -5.796875 C 2.851562 -5.847656 3.125 -5.96875 3.34375 -6.15625 C 3.5625 -6.351562 3.65625 -6.597656 3.625 -6.890625 C 3.601562 -6.992188 3.546875 -7.054688 3.453125 -7.078125 C 3.367188 -7.109375 3.285156 -7.113281 3.203125 -7.09375 C 2.628906 -7 2.117188 -6.742188 1.671875 -6.328125 Z M 1.671875 -6.328125 "/></g></g><g transform="translate(144.849879, 38.266078)"><g><path d="M 5.625 -5.890625 C 4.394531 -5.429688 3.507812 -5.0625 2.96875 -4.78125 C 2.570312 -4.582031 2.34375 -4.421875 2.28125 -4.296875 C 2.226562 -4.171875 2.273438 -3.9375 2.421875 -3.59375 C 2.421875 -3.570312 2.4375 -3.546875 2.46875 -3.515625 C 2.632812 -3.109375 2.734375 -2.6875 2.765625 -2.25 C 2.816406 -1.351562 2.054688 -0.726562 0.484375 -0.375 C -1.078125 -0.0195312 -2.125 -0.0078125 -2.65625 -0.34375 C -3.1875 -0.675781 -3.347656 -1.097656 -3.140625 -1.609375 C -2.929688 -2.117188 -2.394531 -2.632812 -1.53125 -3.15625 C -0.675781 -3.6875 -0.109375 -4.066406 0.171875 -4.296875 C 0.460938 -4.523438 0.550781 -4.785156 0.4375 -5.078125 C 0.40625 -5.179688 0.363281 -5.28125 0.3125 -5.375 C 0.207031 -5.613281 0.101562 -5.863281 0 -6.125 C -0.195312 -6.59375 -0.28125 -7.050781 -0.25 -7.5 C -0.226562 -7.945312 -0.0664062 -8.320312 0.234375 -8.625 C 0.546875 -8.9375 1.019531 -9.101562 1.65625 -9.125 C 2.019531 -9.132812 2.34375 -9.082031 2.625 -8.96875 C 2.914062 -8.863281 3.148438 -8.660156 3.328125 -8.359375 C 3.460938 -8.148438 3.421875 -7.957031 3.203125 -7.78125 C 3.046875 -7.664062 2.882812 -7.648438 2.71875 -7.734375 C 2.613281 -7.785156 2.507812 -7.851562 2.40625 -7.9375 C 2.40625 -7.957031 2.40625 -7.96875 2.40625 -7.96875 C 2.351562 -8 2.3125 -8.03125 2.28125 -8.0625 C 2.226562 -8.132812 2.175781 -8.191406 2.125 -8.234375 C 1.925781 -8.378906 1.722656 -8.421875 1.515625 -8.359375 C 1.304688 -8.296875 1.15625 -8.140625 1.0625 -7.890625 C 0.988281 -7.691406 0.953125 -7.488281 0.953125 -7.28125 C 0.960938 -7.019531 1.019531 -6.769531 1.125 -6.53125 C 1.195312 -6.382812 1.257812 -6.25 1.3125 -6.125 C 1.445312 -5.78125 1.554688 -5.546875 1.640625 -5.421875 C 1.722656 -5.296875 1.820312 -5.238281 1.9375 -5.25 C 2.0625 -5.269531 3.160156 -5.664062 5.234375 -6.4375 C 5.691406 -6.582031 5.820312 -6.398438 5.625 -5.890625 Z M 0.59375 -1.453125 C 1.132812 -1.640625 1.363281 -2.003906 1.28125 -2.546875 C 1.28125 -2.585938 1.269531 -2.628906 1.25 -2.671875 C 1.21875 -2.960938 1.15625 -3.1875 1.0625 -3.34375 C 0.96875 -3.507812 0.757812 -3.503906 0.4375 -3.328125 C -0.363281 -2.878906 -1.109375 -2.347656 -1.796875 -1.734375 C -1.835938 -1.679688 -1.878906 -1.628906 -1.921875 -1.578125 C -1.921875 -1.578125 -1.925781 -1.566406 -1.9375 -1.546875 C -1.988281 -1.484375 -2 -1.410156 -1.96875 -1.328125 C -1.9375 -1.253906 -1.863281 -1.21875 -1.75 -1.21875 C -0.957031 -1.09375 -0.175781 -1.171875 0.59375 -1.453125 Z M 0.59375 -1.453125 "/></g></g></g><g fill="#000000" fill-opacity="1"><g transform="translate(28.546965, 59.902671)"><g><path d="M 2.625 -4.90625 C 3.25 -4.90625 3.738281 -4.753906 4.09375 -4.453125 C 4.457031 -4.148438 4.640625 -3.738281 4.640625 -3.21875 C 4.640625 -2.695312 4.457031 -2.285156 4.09375 -1.984375 C 3.738281 -1.691406 3.25 -1.546875 2.625 -1.546875 L 1.3125 -1.546875 L 1.3125 0 L 0.796875 0 L 0.796875 -4.90625 Z M 2.625 -2 C 3.101562 -2 3.46875 -2.101562 3.71875 -2.3125 C 3.976562 -2.53125 4.109375 -2.832031 4.109375 -3.21875 C 4.109375 -3.613281 3.976562 -3.914062 3.71875 -4.125 C 3.46875 -4.34375 3.101562 -4.453125 2.625 -4.453125 L 1.3125 -4.453125 L 1.3125 -2 Z M 2.625 -2 "/></g></g></g><g fill="#000000" fill-opacity="1"><g transform="translate(33.573015, 59.902671)"><g><path d="M 1.6875 0.03125 C 1.382812 0.03125 1.09375 -0.0078125 0.8125 -0.09375 C 0.539062 -0.175781 0.332031 -0.285156 0.1875 -0.421875 L 0.40625 -0.8125 C 0.5625 -0.6875 0.753906 -0.585938 0.984375 -0.515625 C 1.222656 -0.441406 1.46875 -0.40625 1.71875 -0.40625 C 2.050781 -0.40625 2.296875 -0.457031 2.453125 -0.5625 C 2.617188 -0.664062 2.703125 -0.8125 2.703125 -1 C 2.703125 -1.132812 2.65625 -1.238281 2.5625 -1.3125 C 2.476562 -1.394531 2.367188 -1.453125 2.234375 -1.484375 C 2.097656 -1.523438 1.914062 -1.566406 1.6875 -1.609375 C 1.394531 -1.660156 1.15625 -1.71875 0.96875 -1.78125 C 0.789062 -1.84375 0.632812 -1.941406 0.5 -2.078125 C 0.375 -2.210938 0.3125 -2.40625 0.3125 -2.65625 C 0.3125 -2.96875 0.4375 -3.21875 0.6875 -3.40625 C 0.945312 -3.601562 1.304688 -3.703125 1.765625 -3.703125 C 2.003906 -3.703125 2.242188 -3.671875 2.484375 -3.609375 C 2.722656 -3.546875 2.921875 -3.460938 3.078125 -3.359375 L 2.859375 -2.96875 C 2.554688 -3.175781 2.191406 -3.28125 1.765625 -3.28125 C 1.453125 -3.28125 1.210938 -3.222656 1.046875 -3.109375 C 0.890625 -3.003906 0.8125 -2.859375 0.8125 -2.671875 C 0.8125 -2.535156 0.851562 -2.425781 0.9375 -2.34375 C 1.03125 -2.257812 1.144531 -2.195312 1.28125 -2.15625 C 1.414062 -2.113281 1.601562 -2.070312 1.84375 -2.03125 C 2.132812 -1.976562 2.367188 -1.921875 2.546875 -1.859375 C 2.734375 -1.804688 2.890625 -1.710938 3.015625 -1.578125 C 3.140625 -1.441406 3.203125 -1.253906 3.203125 -1.015625 C 3.203125 -0.691406 3.066406 -0.4375 2.796875 -0.25 C 2.523438 -0.0625 2.15625 0.03125 1.6875 0.03125 Z M 1.6875 0.03125 "/></g></g></g><g fill="#000000" fill-opacity="1"><g transform="translate(36.99605, 59.902671)"><g><path d="M 0.6875 -3.6875 L 1.1875 -3.6875 L 1.1875 0 L 0.6875 0 Z M 0.953125 -4.484375 C 0.847656 -4.484375 0.757812 -4.519531 0.6875 -4.59375 C 0.613281 -4.664062 0.578125 -4.75 0.578125 -4.84375 C 0.578125 -4.9375 0.613281 -5.015625 0.6875 -5.078125 C 0.757812 -5.148438 0.847656 -5.1875 0.953125 -5.1875 C 1.046875 -5.1875 1.128906 -5.148438 1.203125 -5.078125 C 1.273438 -5.015625 1.3125 -4.9375 1.3125 -4.84375 C 1.3125 -4.75 1.273438 -4.664062 1.203125 -4.59375 C 1.128906 -4.519531 1.046875 -4.484375 0.953125 -4.484375 Z M 0.953125 -4.484375 "/></g></g></g><g fill="#000000" fill-opacity="1"><g transform="translate(38.879072, 59.902671)"><g><path d="M 2.21875 0.03125 C 1.851562 0.03125 1.523438 -0.046875 1.234375 -0.203125 C 0.953125 -0.359375 0.726562 -0.578125 0.5625 -0.859375 C 0.40625 -1.148438 0.328125 -1.476562 0.328125 -1.84375 C 0.328125 -2.195312 0.40625 -2.515625 0.5625 -2.796875 C 0.726562 -3.085938 0.953125 -3.3125 1.234375 -3.46875 C 1.523438 -3.625 1.851562 -3.703125 2.21875 -3.703125 C 2.53125 -3.703125 2.8125 -3.640625 3.0625 -3.515625 C 3.3125 -3.398438 3.507812 -3.222656 3.65625 -2.984375 L 3.296875 -2.734375 C 3.171875 -2.910156 3.015625 -3.046875 2.828125 -3.140625 C 2.640625 -3.234375 2.4375 -3.28125 2.21875 -3.28125 C 1.945312 -3.28125 1.707031 -3.21875 1.5 -3.09375 C 1.289062 -2.976562 1.125 -2.8125 1 -2.59375 C 0.882812 -2.375 0.828125 -2.125 0.828125 -1.84375 C 0.828125 -1.550781 0.882812 -1.296875 1 -1.078125 C 1.125 -0.867188 1.289062 -0.703125 1.5 -0.578125 C 1.707031 -0.460938 1.945312 -0.40625 2.21875 -0.40625 C 2.4375 -0.40625 2.640625 -0.445312 2.828125 -0.53125 C 3.015625 -0.625 3.171875 -0.757812 3.296875 -0.9375 L 3.65625 -0.6875 C 3.507812 -0.457031 3.3125 -0.28125 3.0625 -0.15625 C 2.8125 -0.03125 2.53125 0.03125 2.21875 0.03125 Z M 2.21875 0.03125 "/></g></g></g><g fill="#000000" fill-opacity="1"><g transform="translate(42.820108, 59.902671)"><g><path d="M 2.203125 0.03125 C 1.847656 0.03125 1.523438 -0.046875 1.234375 -0.203125 C 0.953125 -0.367188 0.726562 -0.59375 0.5625 -0.875 C 0.40625 -1.15625 0.328125 -1.476562 0.328125 -1.84375 C 0.328125 -2.195312 0.40625 -2.515625 0.5625 -2.796875 C 0.726562 -3.085938 0.953125 -3.3125 1.234375 -3.46875 C 1.523438 -3.625 1.847656 -3.703125 2.203125 -3.703125 C 2.554688 -3.703125 2.875 -3.625 3.15625 -3.46875 C 3.4375 -3.3125 3.65625 -3.085938 3.8125 -2.796875 C 3.976562 -2.515625 4.0625 -2.195312 4.0625 -1.84375 C 4.0625 -1.476562 3.976562 -1.15625 3.8125 -0.875 C 3.65625 -0.59375 3.4375 -0.367188 3.15625 -0.203125 C 2.875 -0.046875 2.554688 0.03125 2.203125 0.03125 Z M 2.203125 -0.40625 C 2.460938 -0.40625 2.695312 -0.460938 2.90625 -0.578125 C 3.113281 -0.703125 3.273438 -0.875 3.390625 -1.09375 C 3.503906 -1.3125 3.5625 -1.5625 3.5625 -1.84375 C 3.5625 -2.125 3.503906 -2.375 3.390625 -2.59375 C 3.273438 -2.8125 3.113281 -2.976562 2.90625 -3.09375 C 2.695312 -3.21875 2.460938 -3.28125 2.203125 -3.28125 C 1.941406 -3.28125 1.707031 -3.21875 1.5 -3.09375 C 1.289062 -2.976562 1.125 -2.8125 1 -2.59375 C 0.882812 -2.375 0.828125 -2.125 0.828125 -1.84375 C 0.828125 -1.5625 0.882812 -1.3125 1 -1.09375 C 1.125 -0.875 1.289062 -0.703125 1.5 -0.578125 C 1.707031 -0.460938 1.941406 -0.40625 2.203125 -0.40625 Z M 2.703125 -5.109375 L 3.359375 -5.109375 L 2.234375 -4.25 L 1.734375 -4.25 Z M 2.703125 -5.109375 "/></g></g></g><g fill="#000000" fill-opacity="1"><g transform="translate(47.20915, 59.902671)"><g><path d="M 0.6875 -5.1875 L 1.1875 -5.1875 L 1.1875 0 L 0.6875 0 Z M 0.6875 -5.1875 "/></g></g></g><g fill="#000000" fill-opacity="1"><g transform="translate(49.092171, 59.902671)"><g><path d="M 2.203125 0.03125 C 1.847656 0.03125 1.523438 -0.046875 1.234375 -0.203125 C 0.953125 -0.367188 0.726562 -0.59375 0.5625 -0.875 C 0.40625 -1.15625 0.328125 -1.476562 0.328125 -1.84375 C 0.328125 -2.195312 0.40625 -2.515625 0.5625 -2.796875 C 0.726562 -3.085938 0.953125 -3.3125 1.234375 -3.46875 C 1.523438 -3.625 1.847656 -3.703125 2.203125 -3.703125 C 2.554688 -3.703125 2.875 -3.625 3.15625 -3.46875 C 3.4375 -3.3125 3.65625 -3.085938 3.8125 -2.796875 C 3.976562 -2.515625 4.0625 -2.195312 4.0625 -1.84375 C 4.0625 -1.476562 3.976562 -1.15625 3.8125 -0.875 C 3.65625 -0.59375 3.4375 -0.367188 3.15625 -0.203125 C 2.875 -0.046875 2.554688 0.03125 2.203125 0.03125 Z M 2.203125 -0.40625 C 2.460938 -0.40625 2.695312 -0.460938 2.90625 -0.578125 C 3.113281 -0.703125 3.273438 -0.875 3.390625 -1.09375 C 3.503906 -1.3125 3.5625 -1.5625 3.5625 -1.84375 C 3.5625 -2.125 3.503906 -2.375 3.390625 -2.59375 C 3.273438 -2.8125 3.113281 -2.976562 2.90625 -3.09375 C 2.695312 -3.21875 2.460938 -3.28125 2.203125 -3.28125 C 1.941406 -3.28125 1.707031 -3.21875 1.5 -3.09375 C 1.289062 -2.976562 1.125 -2.8125 1 -2.59375 C 0.882812 -2.375 0.828125 -2.125 0.828125 -1.84375 C 0.828125 -1.5625 0.882812 -1.3125 1 -1.09375 C 1.125 -0.875 1.289062 -0.703125 1.5 -0.578125 C 1.707031 -0.460938 1.941406 -0.40625 2.203125 -0.40625 Z M 2.203125 -0.40625 "/></g></g></g><g fill="#000000" fill-opacity="1"><g transform="translate(53.481213, 59.902671)"><g><path d="M 4.109375 -3.6875 L 4.109375 -0.453125 C 4.109375 0.171875 3.953125 0.632812 3.640625 0.9375 C 3.335938 1.238281 2.878906 1.390625 2.265625 1.390625 C 1.921875 1.390625 1.59375 1.335938 1.28125 1.234375 C 0.976562 1.140625 0.734375 1.003906 0.546875 0.828125 L 0.796875 0.453125 C 0.972656 0.609375 1.1875 0.726562 1.4375 0.8125 C 1.695312 0.90625 1.96875 0.953125 2.25 0.953125 C 2.71875 0.953125 3.0625 0.84375 3.28125 0.625 C 3.5 0.40625 3.609375 0.0664062 3.609375 -0.390625 L 3.609375 -0.859375 C 3.453125 -0.617188 3.25 -0.4375 3 -0.3125 C 2.75 -0.195312 2.472656 -0.140625 2.171875 -0.140625 C 1.828125 -0.140625 1.515625 -0.210938 1.234375 -0.359375 C 0.953125 -0.515625 0.726562 -0.726562 0.5625 -1 C 0.40625 -1.269531 0.328125 -1.582031 0.328125 -1.9375 C 0.328125 -2.28125 0.40625 -2.585938 0.5625 -2.859375 C 0.726562 -3.128906 0.945312 -3.335938 1.21875 -3.484375 C 1.5 -3.628906 1.816406 -3.703125 2.171875 -3.703125 C 2.484375 -3.703125 2.765625 -3.640625 3.015625 -3.515625 C 3.265625 -3.390625 3.46875 -3.207031 3.625 -2.96875 L 3.625 -3.6875 Z M 2.21875 -0.578125 C 2.488281 -0.578125 2.726562 -0.632812 2.9375 -0.75 C 3.15625 -0.863281 3.320312 -1.023438 3.4375 -1.234375 C 3.5625 -1.441406 3.625 -1.675781 3.625 -1.9375 C 3.625 -2.195312 3.5625 -2.425781 3.4375 -2.625 C 3.320312 -2.832031 3.15625 -2.992188 2.9375 -3.109375 C 2.726562 -3.222656 2.488281 -3.28125 2.21875 -3.28125 C 1.945312 -3.28125 1.707031 -3.222656 1.5 -3.109375 C 1.289062 -2.992188 1.125 -2.832031 1 -2.625 C 0.882812 -2.425781 0.828125 -2.195312 0.828125 -1.9375 C 0.828125 -1.675781 0.882812 -1.441406 1 -1.234375 C 1.125 -1.023438 1.289062 -0.863281 1.5 -0.75 C 1.707031 -0.632812 1.945312 -0.578125 2.21875 -0.578125 Z M 2.21875 -0.578125 "/></g></g></g><g fill="#000000" fill-opacity="1"><g transform="translate(58.28326, 59.902671)"><g><path d="M 1.984375 -3.703125 C 2.460938 -3.703125 2.828125 -3.582031 3.078125 -3.34375 C 3.335938 -3.101562 3.46875 -2.75 3.46875 -2.28125 L 3.46875 0 L 3 0 L 3 -0.578125 C 2.882812 -0.378906 2.71875 -0.226562 2.5 -0.125 C 2.28125 -0.0195312 2.023438 0.03125 1.734375 0.03125 C 1.316406 0.03125 0.988281 -0.0625 0.75 -0.25 C 0.507812 -0.445312 0.390625 -0.707031 0.390625 -1.03125 C 0.390625 -1.34375 0.5 -1.59375 0.71875 -1.78125 C 0.945312 -1.976562 1.3125 -2.078125 1.8125 -2.078125 L 2.96875 -2.078125 L 2.96875 -2.296875 C 2.96875 -2.617188 2.878906 -2.863281 2.703125 -3.03125 C 2.523438 -3.195312 2.269531 -3.28125 1.9375 -3.28125 C 1.695312 -3.28125 1.46875 -3.238281 1.25 -3.15625 C 1.039062 -3.082031 0.859375 -2.976562 0.703125 -2.84375 L 0.484375 -3.21875 C 0.671875 -3.375 0.894531 -3.492188 1.15625 -3.578125 C 1.414062 -3.660156 1.691406 -3.703125 1.984375 -3.703125 Z M 1.8125 -0.359375 C 2.082031 -0.359375 2.316406 -0.421875 2.515625 -0.546875 C 2.722656 -0.671875 2.875 -0.859375 2.96875 -1.109375 L 2.96875 -1.703125 L 1.8125 -1.703125 C 1.1875 -1.703125 0.875 -1.484375 0.875 -1.046875 C 0.875 -0.835938 0.953125 -0.671875 1.109375 -0.546875 C 1.273438 -0.421875 1.507812 -0.359375 1.8125 -0.359375 Z M 1.8125 -0.359375 "/></g></g></g><g fill="#000000" fill-opacity="1"><g transform="translate(62.4133, 59.902671)"><g/></g></g><g fill="#000000" fill-opacity="1"><g transform="translate(64.247322, 59.902671)"><g><path d="M 0.421875 -2.109375 L 2.25 -2.109375 L 2.25 -1.6875 L 0.421875 -1.6875 Z M 0.421875 -2.109375 "/></g></g></g><g fill="#000000" fill-opacity="1"><g transform="translate(66.921348, 59.902671)"><g/></g></g><g fill="#000000" fill-opacity="1"><g transform="translate(68.75537, 59.902671)"><g><path d="M 2.921875 0.046875 C 2.441406 0.046875 2.003906 -0.0625 1.609375 -0.28125 C 1.222656 -0.5 0.914062 -0.796875 0.6875 -1.171875 C 0.46875 -1.554688 0.359375 -1.984375 0.359375 -2.453125 C 0.359375 -2.921875 0.46875 -3.34375 0.6875 -3.71875 C 0.914062 -4.101562 1.222656 -4.398438 1.609375 -4.609375 C 2.003906 -4.828125 2.445312 -4.9375 2.9375 -4.9375 C 3.300781 -4.9375 3.632812 -4.875 3.9375 -4.75 C 4.25 -4.632812 4.507812 -4.460938 4.71875 -4.234375 L 4.390625 -3.90625 C 4.015625 -4.289062 3.535156 -4.484375 2.953125 -4.484375 C 2.554688 -4.484375 2.195312 -4.394531 1.875 -4.21875 C 1.5625 -4.039062 1.316406 -3.796875 1.140625 -3.484375 C 0.960938 -3.179688 0.875 -2.835938 0.875 -2.453125 C 0.875 -2.066406 0.960938 -1.71875 1.140625 -1.40625 C 1.316406 -1.101562 1.5625 -0.863281 1.875 -0.6875 C 2.195312 -0.507812 2.554688 -0.421875 2.953125 -0.421875 C 3.535156 -0.421875 4.015625 -0.617188 4.390625 -1.015625 L 4.71875 -0.671875 C 4.507812 -0.441406 4.25 -0.265625 3.9375 -0.140625 C 3.625 -0.015625 3.285156 0.046875 2.921875 0.046875 Z M 2.921875 0.046875 "/></g></g></g><g fill="#000000" fill-opacity="1"><g transform="translate(73.788424, 59.902671)"><g><path d="M 4.140625 0 L 3.03125 -1.578125 C 2.894531 -1.554688 2.757812 -1.546875 2.625 -1.546875 L 1.3125 -1.546875 L 1.3125 0 L 0.796875 0 L 0.796875 -4.90625 L 2.625 -4.90625 C 3.25 -4.90625 3.738281 -4.753906 4.09375 -4.453125 C 4.457031 -4.148438 4.640625 -3.738281 4.640625 -3.21875 C 4.640625 -2.832031 4.539062 -2.507812 4.34375 -2.25 C 4.144531 -1.988281 3.867188 -1.800781 3.515625 -1.6875 L 4.71875 0 Z M 2.625 -2 C 3.101562 -2 3.46875 -2.101562 3.71875 -2.3125 C 3.976562 -2.53125 4.109375 -2.832031 4.109375 -3.21875 C 4.109375 -3.613281 3.976562 -3.914062 3.71875 -4.125 C 3.46875 -4.34375 3.101562 -4.453125 2.625 -4.453125 L 1.3125 -4.453125 L 1.3125 -2 Z M 2.625 -2 "/></g></g></g><g fill="#000000" fill-opacity="1"><g transform="translate(78.849472, 59.902671)"><g><path d="M 2.625 -4.90625 C 3.25 -4.90625 3.738281 -4.753906 4.09375 -4.453125 C 4.457031 -4.148438 4.640625 -3.738281 4.640625 -3.21875 C 4.640625 -2.695312 4.457031 -2.285156 4.09375 -1.984375 C 3.738281 -1.691406 3.25 -1.546875 2.625 -1.546875 L 1.3125 -1.546875 L 1.3125 0 L 0.796875 0 L 0.796875 -4.90625 Z M 2.625 -2 C 3.101562 -2 3.46875 -2.101562 3.71875 -2.3125 C 3.976562 -2.53125 4.109375 -2.832031 4.109375 -3.21875 C 4.109375 -3.613281 3.976562 -3.914062 3.71875 -4.125 C 3.46875 -4.34375 3.101562 -4.453125 2.625 -4.453125 L 1.3125 -4.453125 L 1.3125 -2 Z M 2.625 -2 "/></g></g></g><g fill="#000000" fill-opacity="1"><g transform="translate(83.875522, 59.902671)"><g/></g></g><g fill="#000000" fill-opacity="1"><g transform="translate(85.709544, 59.902671)"><g><path d="M 2.3125 0.046875 C 1.9375 0.046875 1.597656 -0.0507812 1.296875 -0.25 C 1.003906 -0.457031 0.773438 -0.75 0.609375 -1.125 C 0.441406 -1.5 0.359375 -1.941406 0.359375 -2.453125 C 0.359375 -2.960938 0.441406 -3.40625 0.609375 -3.78125 C 0.773438 -4.15625 1.003906 -4.441406 1.296875 -4.640625 C 1.597656 -4.835938 1.9375 -4.9375 2.3125 -4.9375 C 2.695312 -4.9375 3.035156 -4.835938 3.328125 -4.640625 C 3.617188 -4.441406 3.847656 -4.15625 4.015625 -3.78125 C 4.191406 -3.40625 4.28125 -2.960938 4.28125 -2.453125 C 4.28125 -1.941406 4.191406 -1.5 4.015625 -1.125 C 3.847656 -0.75 3.617188 -0.457031 3.328125 -0.25 C 3.035156 -0.0507812 2.695312 0.046875 2.3125 0.046875 Z M 2.3125 -0.421875 C 2.601562 -0.421875 2.851562 -0.5 3.0625 -0.65625 C 3.28125 -0.8125 3.453125 -1.039062 3.578125 -1.34375 C 3.703125 -1.65625 3.765625 -2.023438 3.765625 -2.453125 C 3.765625 -2.878906 3.703125 -3.242188 3.578125 -3.546875 C 3.453125 -3.847656 3.28125 -4.078125 3.0625 -4.234375 C 2.851562 -4.398438 2.601562 -4.484375 2.3125 -4.484375 C 2.03125 -4.484375 1.78125 -4.398438 1.5625 -4.234375 C 1.34375 -4.078125 1.171875 -3.847656 1.046875 -3.546875 C 0.929688 -3.242188 0.875 -2.878906 0.875 -2.453125 C 0.875 -2.023438 0.929688 -1.65625 1.046875 -1.34375 C 1.171875 -1.039062 1.34375 -0.8125 1.5625 -0.65625 C 1.78125 -0.5 2.03125 -0.421875 2.3125 -0.421875 Z M 2.3125 -0.421875 "/></g></g></g><g fill="#000000" fill-opacity="1"><g transform="translate(90.343594, 59.902671)"><g><path d="M 2.390625 -2.9375 C 2.710938 -2.9375 3 -2.875 3.25 -2.75 C 3.5 -2.625 3.691406 -2.453125 3.828125 -2.234375 C 3.972656 -2.015625 4.046875 -1.757812 4.046875 -1.46875 C 4.046875 -1.164062 3.972656 -0.898438 3.828125 -0.671875 C 3.679688 -0.441406 3.476562 -0.265625 3.21875 -0.140625 C 2.96875 -0.015625 2.6875 0.046875 2.375 0.046875 C 1.726562 0.046875 1.226562 -0.164062 0.875 -0.59375 C 0.53125 -1.019531 0.359375 -1.625 0.359375 -2.40625 C 0.359375 -2.957031 0.453125 -3.421875 0.640625 -3.796875 C 0.828125 -4.171875 1.085938 -4.453125 1.421875 -4.640625 C 1.765625 -4.835938 2.160156 -4.9375 2.609375 -4.9375 C 3.085938 -4.9375 3.472656 -4.847656 3.765625 -4.671875 L 3.5625 -4.265625 C 3.332031 -4.421875 3.015625 -4.5 2.609375 -4.5 C 2.066406 -4.5 1.640625 -4.328125 1.328125 -3.984375 C 1.023438 -3.640625 0.875 -3.140625 0.875 -2.484375 C 0.875 -2.367188 0.878906 -2.238281 0.890625 -2.09375 C 1.015625 -2.351562 1.207031 -2.554688 1.46875 -2.703125 C 1.738281 -2.859375 2.046875 -2.9375 2.390625 -2.9375 Z M 2.359375 -0.390625 C 2.710938 -0.390625 3 -0.484375 3.21875 -0.671875 C 3.4375 -0.867188 3.546875 -1.128906 3.546875 -1.453125 C 3.546875 -1.773438 3.4375 -2.03125 3.21875 -2.21875 C 3 -2.40625 2.695312 -2.5 2.3125 -2.5 C 2.070312 -2.5 1.851562 -2.453125 1.65625 -2.359375 C 1.46875 -2.265625 1.320312 -2.132812 1.21875 -1.96875 C 1.113281 -1.8125 1.0625 -1.632812 1.0625 -1.4375 C 1.0625 -1.25 1.109375 -1.070312 1.203125 -0.90625 C 1.304688 -0.75 1.457031 -0.625 1.65625 -0.53125 C 1.851562 -0.4375 2.085938 -0.390625 2.359375 -0.390625 Z M 2.359375 -0.390625 "/></g></g></g><g fill="#000000" fill-opacity="1"><g transform="translate(94.606633, 59.902671)"><g><path d="M 2.140625 -5.890625 L 2.59375 -5.890625 L 0.28125 0.703125 L -0.171875 0.703125 Z M 2.140625 -5.890625 "/></g></g></g><g fill="#000000" fill-opacity="1"><g transform="translate(96.95166, 59.902671)"><g><path d="M 1.71875 -4.90625 L 1.71875 0 L 1.21875 0 L 1.21875 -4.453125 L 0.0625 -4.453125 L 0.0625 -4.90625 Z M 1.71875 -4.90625 "/></g></g></g><g fill="#000000" fill-opacity="1"><g transform="translate(99.478686, 59.902671)"><g><path d="M 3.703125 -0.453125 L 3.703125 0 L 0.265625 0 L 0.265625 -0.359375 L 2.3125 -2.359375 C 2.5625 -2.609375 2.734375 -2.820312 2.828125 -3 C 2.921875 -3.1875 2.96875 -3.375 2.96875 -3.5625 C 2.96875 -3.851562 2.867188 -4.078125 2.671875 -4.234375 C 2.472656 -4.398438 2.1875 -4.484375 1.8125 -4.484375 C 1.238281 -4.484375 0.796875 -4.300781 0.484375 -3.9375 L 0.125 -4.234375 C 0.3125 -4.460938 0.550781 -4.632812 0.84375 -4.75 C 1.144531 -4.875 1.484375 -4.9375 1.859375 -4.9375 C 2.359375 -4.9375 2.753906 -4.816406 3.046875 -4.578125 C 3.335938 -4.347656 3.484375 -4.03125 3.484375 -3.625 C 3.484375 -3.363281 3.425781 -3.117188 3.3125 -2.890625 C 3.207031 -2.660156 3 -2.394531 2.6875 -2.09375 L 1.015625 -0.453125 Z M 3.703125 -0.453125 "/></g></g></g><g fill="#000000" fill-opacity="1"><g transform="translate(103.45473, 59.902671)"><g><path d="M 2.3125 0.046875 C 1.9375 0.046875 1.597656 -0.0507812 1.296875 -0.25 C 1.003906 -0.457031 0.773438 -0.75 0.609375 -1.125 C 0.441406 -1.5 0.359375 -1.941406 0.359375 -2.453125 C 0.359375 -2.960938 0.441406 -3.40625 0.609375 -3.78125 C 0.773438 -4.15625 1.003906 -4.441406 1.296875 -4.640625 C 1.597656 -4.835938 1.9375 -4.9375 2.3125 -4.9375 C 2.695312 -4.9375 3.035156 -4.835938 3.328125 -4.640625 C 3.617188 -4.441406 3.847656 -4.15625 4.015625 -3.78125 C 4.191406 -3.40625 4.28125 -2.960938 4.28125 -2.453125 C 4.28125 -1.941406 4.191406 -1.5 4.015625 -1.125 C 3.847656 -0.75 3.617188 -0.457031 3.328125 -0.25 C 3.035156 -0.0507812 2.695312 0.046875 2.3125 0.046875 Z M 2.3125 -0.421875 C 2.601562 -0.421875 2.851562 -0.5 3.0625 -0.65625 C 3.28125 -0.8125 3.453125 -1.039062 3.578125 -1.34375 C 3.703125 -1.65625 3.765625 -2.023438 3.765625 -2.453125 C 3.765625 -2.878906 3.703125 -3.242188 3.578125 -3.546875 C 3.453125 -3.847656 3.28125 -4.078125 3.0625 -4.234375 C 2.851562 -4.398438 2.601562 -4.484375 2.3125 -4.484375 C 2.03125 -4.484375 1.78125 -4.398438 1.5625 -4.234375 C 1.34375 -4.078125 1.171875 -3.847656 1.046875 -3.546875 C 0.929688 -3.242188 0.875 -2.878906 0.875 -2.453125 C 0.875 -2.023438 0.929688 -1.65625 1.046875 -1.34375 C 1.171875 -1.039062 1.34375 -0.8125 1.5625 -0.65625 C 1.78125 -0.5 2.03125 -0.421875 2.3125 -0.421875 Z M 2.3125 -0.421875 "/></g></g></g><g fill="#000000" fill-opacity="1"><g transform="translate(108.08878, 59.902671)"><g><path d="M 3.171875 -2.5625 C 3.484375 -2.46875 3.71875 -2.316406 3.875 -2.109375 C 4.039062 -1.898438 4.125 -1.648438 4.125 -1.359375 C 4.125 -1.078125 4.046875 -0.828125 3.890625 -0.609375 C 3.742188 -0.398438 3.523438 -0.238281 3.234375 -0.125 C 2.953125 -0.0078125 2.613281 0.046875 2.21875 0.046875 C 1.632812 0.046875 1.175781 -0.078125 0.84375 -0.328125 C 0.507812 -0.585938 0.34375 -0.929688 0.34375 -1.359375 C 0.34375 -1.660156 0.421875 -1.910156 0.578125 -2.109375 C 0.734375 -2.316406 0.96875 -2.46875 1.28125 -2.5625 C 1.03125 -2.664062 0.835938 -2.804688 0.703125 -2.984375 C 0.578125 -3.171875 0.515625 -3.390625 0.515625 -3.640625 C 0.515625 -4.035156 0.664062 -4.347656 0.96875 -4.578125 C 1.28125 -4.816406 1.695312 -4.9375 2.21875 -4.9375 C 2.570312 -4.9375 2.875 -4.882812 3.125 -4.78125 C 3.382812 -4.675781 3.585938 -4.523438 3.734375 -4.328125 C 3.878906 -4.128906 3.953125 -3.898438 3.953125 -3.640625 C 3.953125 -3.390625 3.882812 -3.171875 3.75 -2.984375 C 3.613281 -2.804688 3.421875 -2.664062 3.171875 -2.5625 Z M 1.015625 -3.640625 C 1.015625 -3.367188 1.117188 -3.148438 1.328125 -2.984375 C 1.546875 -2.828125 1.84375 -2.75 2.21875 -2.75 C 2.601562 -2.75 2.898438 -2.828125 3.109375 -2.984375 C 3.328125 -3.148438 3.4375 -3.363281 3.4375 -3.625 C 3.4375 -3.894531 3.328125 -4.109375 3.109375 -4.265625 C 2.890625 -4.429688 2.59375 -4.515625 2.21875 -4.515625 C 1.851562 -4.515625 1.5625 -4.429688 1.34375 -4.265625 C 1.125 -4.109375 1.015625 -3.898438 1.015625 -3.640625 Z M 2.21875 -0.390625 C 2.65625 -0.390625 2.992188 -0.476562 3.234375 -0.65625 C 3.484375 -0.832031 3.609375 -1.070312 3.609375 -1.375 C 3.609375 -1.675781 3.484375 -1.914062 3.234375 -2.09375 C 2.992188 -2.269531 2.65625 -2.359375 2.21875 -2.359375 C 1.789062 -2.359375 1.453125 -2.269531 1.203125 -2.09375 C 0.960938 -1.914062 0.84375 -1.675781 0.84375 -1.375 C 0.84375 -1.0625 0.960938 -0.816406 1.203125 -0.640625 C 1.453125 -0.472656 1.789062 -0.390625 2.21875 -0.390625 Z M 2.21875 -0.390625 "/></g></g></g><g fill="#000000" fill-opacity="1"><g transform="translate(112.554824, 59.902671)"><g><path d="M 2.390625 -2.9375 C 2.710938 -2.9375 3 -2.875 3.25 -2.75 C 3.5 -2.625 3.691406 -2.453125 3.828125 -2.234375 C 3.972656 -2.015625 4.046875 -1.757812 4.046875 -1.46875 C 4.046875 -1.164062 3.972656 -0.898438 3.828125 -0.671875 C 3.679688 -0.441406 3.476562 -0.265625 3.21875 -0.140625 C 2.96875 -0.015625 2.6875 0.046875 2.375 0.046875 C 1.726562 0.046875 1.226562 -0.164062 0.875 -0.59375 C 0.53125 -1.019531 0.359375 -1.625 0.359375 -2.40625 C 0.359375 -2.957031 0.453125 -3.421875 0.640625 -3.796875 C 0.828125 -4.171875 1.085938 -4.453125 1.421875 -4.640625 C 1.765625 -4.835938 2.160156 -4.9375 2.609375 -4.9375 C 3.085938 -4.9375 3.472656 -4.847656 3.765625 -4.671875 L 3.5625 -4.265625 C 3.332031 -4.421875 3.015625 -4.5 2.609375 -4.5 C 2.066406 -4.5 1.640625 -4.328125 1.328125 -3.984375 C 1.023438 -3.640625 0.875 -3.140625 0.875 -2.484375 C 0.875 -2.367188 0.878906 -2.238281 0.890625 -2.09375 C 1.015625 -2.351562 1.207031 -2.554688 1.46875 -2.703125 C 1.738281 -2.859375 2.046875 -2.9375 2.390625 -2.9375 Z M 2.359375 -0.390625 C 2.710938 -0.390625 3 -0.484375 3.21875 -0.671875 C 3.4375 -0.867188 3.546875 -1.128906 3.546875 -1.453125 C 3.546875 -1.773438 3.4375 -2.03125 3.21875 -2.21875 C 3 -2.40625 2.695312 -2.5 2.3125 -2.5 C 2.070312 -2.5 1.851562 -2.453125 1.65625 -2.359375 C 1.46875 -2.265625 1.320312 -2.132812 1.21875 -1.96875 C 1.113281 -1.8125 1.0625 -1.632812 1.0625 -1.4375 C 1.0625 -1.25 1.109375 -1.070312 1.203125 -0.90625 C 1.304688 -0.75 1.457031 -0.625 1.65625 -0.53125 C 1.851562 -0.4375 2.085938 -0.390625 2.359375 -0.390625 Z M 2.359375 -0.390625 "/></g></g></g><g fill="#000000" fill-opacity="1"><g transform="translate(116.817863, 59.902671)"><g><path d="M 2.3125 0.046875 C 1.9375 0.046875 1.597656 -0.0507812 1.296875 -0.25 C 1.003906 -0.457031 0.773438 -0.75 0.609375 -1.125 C 0.441406 -1.5 0.359375 -1.941406 0.359375 -2.453125 C 0.359375 -2.960938 0.441406 -3.40625 0.609375 -3.78125 C 0.773438 -4.15625 1.003906 -4.441406 1.296875 -4.640625 C 1.597656 -4.835938 1.9375 -4.9375 2.3125 -4.9375 C 2.695312 -4.9375 3.035156 -4.835938 3.328125 -4.640625 C 3.617188 -4.441406 3.847656 -4.15625 4.015625 -3.78125 C 4.191406 -3.40625 4.28125 -2.960938 4.28125 -2.453125 C 4.28125 -1.941406 4.191406 -1.5 4.015625 -1.125 C 3.847656 -0.75 3.617188 -0.457031 3.328125 -0.25 C 3.035156 -0.0507812 2.695312 0.046875 2.3125 0.046875 Z M 2.3125 -0.421875 C 2.601562 -0.421875 2.851562 -0.5 3.0625 -0.65625 C 3.28125 -0.8125 3.453125 -1.039062 3.578125 -1.34375 C 3.703125 -1.65625 3.765625 -2.023438 3.765625 -2.453125 C 3.765625 -2.878906 3.703125 -3.242188 3.578125 -3.546875 C 3.453125 -3.847656 3.28125 -4.078125 3.0625 -4.234375 C 2.851562 -4.398438 2.601562 -4.484375 2.3125 -4.484375 C 2.03125 -4.484375 1.78125 -4.398438 1.5625 -4.234375 C 1.34375 -4.078125 1.171875 -3.847656 1.046875 -3.546875 C 0.929688 -3.242188 0.875 -2.878906 0.875 -2.453125 C 0.875 -2.023438 0.929688 -1.65625 1.046875 -1.34375 C 1.171875 -1.039062 1.34375 -0.8125 1.5625 -0.65625 C 1.78125 -0.5 2.03125 -0.421875 2.3125 -0.421875 Z M 2.3125 -0.421875 "/></g></g></g></svg>